{"glyphs":{"0":{"ha":1015,"x_min":0,"x_max":0,"o":"m 34 547 b 152 162 34 394 84 252 b 507 -5 237 52 359 -5 b 863 162 656 -5 778 52 b 981 547 942 267 981 396 b 863 931 981 697 942 826 b 507 1099 778 1042 656 1099 b 152 931 359 1099 237 1042 b 34 547 84 841 34 700 z m 704 547 b 632 320 704 452 679 377 b 507 264 599 282 558 264 b 382 320 455 264 415 282 b 309 547 334 377 309 452 b 382 774 309 641 333 715 b 507 831 415 813 455 831 b 632 774 558 831 598 813 b 704 547 679 717 704 642 z "},"1":{"ha":479,"x_min":0,"x_max":0,"o":"m 34 736 l 144 767 l 144 0 l 412 0 l 412 1106 l 34 1003 z "},"2":{"ha":947,"x_min":0,"x_max":0,"o":"m 484 832 b 644 694 566 832 644 775 b 597 594 644 672 630 638 b 466 451 564 550 520 502 b 83 154 359 351 206 236 l 34 0 l 917 0 l 917 267 l 643 267 b 728 342 672 291 698 316 b 866 516 784 397 829 455 b 922 709 903 578 922 643 b 800 985 922 816 881 909 b 485 1099 717 1061 609 1099 b 167 978 360 1099 252 1059 b 46 686 87 898 46 800 l 46 663 l 324 663 l 324 686 b 484 832 324 769 399 832 z "},"3":{"ha":884,"x_min":0,"x_max":0,"o":"m 441 271 b 312 354 381 271 324 309 l 306 378 l 34 311 l 40 289 b 179 79 61 204 108 134 b 441 0 254 27 343 0 b 739 106 559 0 661 36 b 855 366 816 176 855 264 b 746 618 855 463 819 548 b 799 793 781 670 799 729 b 701 1020 799 881 766 957 b 441 1114 630 1083 541 1114 b 208 1040 354 1114 276 1089 b 90 850 146 989 106 925 l 85 827 l 366 770 l 371 794 b 441 844 377 821 405 844 b 512 785 477 844 512 819 l 512 768 b 478 719 508 751 497 735 b 340 671 453 697 404 681 l 265 547 l 306 546 b 508 488 397 542 463 522 b 575 374 554 453 575 416 b 441 271 575 310 508 271 z "},"4":{"ha":1055,"x_min":0,"x_max":0,"o":"m 34 211 l 656 211 l 656 0 l 922 0 l 922 211 l 1032 211 l 1032 477 l 922 477 l 922 887 l 639 887 l 656 477 l 459 477 l 701 1096 l 392 1098 z "},"5":{"ha":928,"x_min":0,"x_max":0,"o":"m 455 267 b 315 337 392 267 348 289 l 304 352 l 34 269 l 45 245 b 199 68 76 173 128 113 b 455 0 275 23 362 0 b 778 115 582 0 692 39 b 903 394 861 191 903 285 b 777 670 903 501 860 594 b 469 785 690 746 585 785 b 371 778 424 785 403 785 l 378 827 l 814 827 l 814 1093 l 137 1093 l 78 511 l 231 433 l 244 444 b 350 512 291 481 327 503 b 466 525 373 520 412 525 b 569 485 518 525 538 510 b 616 394 602 458 616 429 b 455 267 616 316 536 267 z "},"6":{"ha":932,"x_min":0,"x_max":0,"o":"m 623 403 b 467 262 623 324 550 262 b 312 402 384 262 312 323 b 467 544 312 482 384 544 b 478 544 471 544 473 544 b 623 403 554 540 623 479 z m 105 611 b 84 573 99 602 90 584 b 34 385 52 516 34 452 b 153 109 34 277 74 184 b 465 -4 235 34 342 -4 b 778 109 588 -4 695 34 b 898 385 857 184 898 277 b 788 652 898 487 861 577 b 538 771 722 717 637 756 l 748 1092 l 414 1093 z "},"7":{"ha":903,"x_min":0,"x_max":0,"o":"m 27 831 l 491 831 l 189 -4 l 497 -4 l 878 1093 l 27 1093 z "},"8":{"ha":877,"x_min":0,"x_max":0,"o":"m 531 728 l 553 737 l 539 737 z m 374 784 b 440 830 374 812 410 830 b 506 784 469 830 506 812 b 450 737 506 756 475 740 l 441 737 b 374 784 411 737 374 754 z m 789 784 b 694 1004 789 869 757 944 b 440 1095 624 1064 538 1095 b 185 1004 340 1095 254 1064 b 90 784 122 944 90 869 b 141 616 90 723 106 668 b 34 363 70 547 34 461 b 146 105 34 262 72 175 b 439 -1 221 34 322 -1 b 732 105 555 -1 656 34 b 843 363 805 175 843 263 b 737 616 843 461 808 546 b 789 784 771 666 789 723 z m 438 263 b 311 376 370 263 311 312 b 437 492 311 441 370 492 l 447 492 l 449 493 b 528 459 479 491 504 481 b 566 378 554 435 566 409 b 438 263 566 313 504 263 z "},"9":{"ha":932,"x_min":0,"x_max":0,"o":"m 310 691 b 465 833 310 770 383 833 b 621 691 547 833 621 771 b 466 550 621 611 548 550 b 310 691 384 550 310 612 z m 898 707 b 778 984 898 814 857 908 b 465 1099 695 1060 588 1099 b 153 984 342 1099 235 1060 b 34 707 74 907 34 814 b 144 441 34 605 71 515 b 393 321 208 375 294 335 l 183 0 l 518 1 l 829 485 b 898 707 866 546 898 627 z "}," ":{"ha":407,"x_min":0,"x_max":0,"o":""},"!":{"ha":464,"x_min":0,"x_max":0,"o":"m 232 -58 b 396 102 321 -58 396 13 b 232 267 396 192 321 267 b 68 105 142 267 68 195 b 232 -58 68 15 142 -58 z m 79 1117 l 80 1092 b 116 330 92 825 108 601 l 117 307 l 346 307 l 382 1117 z "},"\"":{"ha":619,"x_min":0,"x_max":0,"o":"m 21 1145 l 52 741 l 260 741 l 292 1145 z m 327 1145 l 359 741 l 567 741 l 599 1145 z "},"#":{"ha":945,"x_min":0,"x_max":0,"o":"m 20 186 l 176 186 l 148 -24 l 353 -24 l 380 186 l 489 186 l 461 -24 l 666 -24 l 694 186 l 850 186 l 877 389 l 720 389 l 742 551 l 899 551 l 924 755 l 769 755 l 810 1067 l 605 1067 l 564 755 l 455 755 l 497 1067 l 292 1067 l 251 755 l 94 755 l 67 551 l 223 551 l 202 389 l 46 389 z m 537 551 l 516 389 l 408 389 l 429 551 z "},"$":{"ha":863,"x_min":0,"x_max":0,"o":"m 531 339 b 434 265 531 293 481 265 b 336 351 383 265 336 302 l 336 375 l 56 375 l 56 351 b 314 13 56 179 170 52 l 314 -105 l 553 -105 l 553 9 b 808 338 693 47 808 170 b 705 580 808 432 774 514 b 432 680 635 646 540 680 b 334 756 384 680 334 712 b 432 831 334 798 384 831 b 529 744 483 831 529 792 l 529 720 l 808 720 l 808 744 b 553 1080 808 914 694 1040 l 553 1199 l 314 1199 l 314 1080 b 54 756 173 1042 54 922 b 158 514 54 662 89 580 b 426 414 226 449 319 416 l 427 414 l 434 414 b 531 339 480 414 531 384 z "},"%":{"ha":1181,"x_min":0,"x_max":0,"o":"m 55 0 l 274 0 l 1042 1094 l 823 1094 z m 560 257 b 644 75 560 187 588 126 b 850 0 700 26 770 0 b 1047 75 928 0 995 26 b 1126 257 1099 126 1126 187 b 849 515 1126 404 998 515 b 560 257 699 515 560 405 z m 946 257 b 849 178 946 201 919 178 b 750 257 778 178 750 201 b 849 336 750 314 778 336 b 946 257 919 336 946 314 z m 74 862 b 326 631 74 728 188 631 b 511 699 397 631 460 654 b 589 862 563 744 589 800 b 325 1093 589 993 459 1093 b 74 862 190 1093 74 995 z m 368 917 b 326 816 412 882 375 816 b 281 832 309 816 295 821 b 281 917 257 851 254 898 b 326 935 298 930 311 934 b 368 917 338 934 351 930 z "},"&":{"ha":1072,"x_min":0,"x_max":0,"o":"m 733 74 b 751 62 738 71 745 66 b 1014 -27 818 22 903 -27 l 1037 -27 l 1038 225 l 1014 224 b 884 275 968 222 916 256 b 924 548 915 354 921 442 l 924 573 l 672 569 l 671 547 b 666 448 669 508 669 480 b 641 475 659 455 650 465 b 452 700 572 549 497 619 b 420 759 449 706 438 723 b 399 813 404 789 399 810 b 460 859 405 845 421 859 b 523 808 493 859 516 836 l 528 785 l 793 841 l 787 864 b 460 1128 756 1005 627 1128 b 217 1023 367 1128 265 1070 b 127 818 169 974 127 912 b 189 622 129 753 160 668 b 87 509 153 589 119 550 b 34 341 52 465 35 408 b 146 75 34 237 72 147 b 421 -35 221 2 314 -35 b 733 74 544 -35 670 11 z m 562 221 l 585 201 l 585 331 l 557 289 z m 347 439 b 454 316 376 396 412 354 b 524 254 484 289 507 268 b 422 228 504 244 443 228 b 331 253 374 228 346 238 b 290 337 313 269 290 304 b 347 439 288 398 316 415 z "},"'":{"ha":326,"x_min":0,"x_max":0,"o":"m 27 1145 l 59 741 l 267 741 l 299 1145 z "},"(":{"ha":503,"x_min":0,"x_max":0,"o":"m 469 -7 l 440 -7 b 339 145 412 -7 374 31 b 289 547 306 256 289 390 b 339 948 289 704 306 837 b 440 1101 373 1063 412 1101 l 469 1101 l 420 1331 l 397 1326 b 136 1068 290 1305 204 1215 b 34 547 67 919 34 745 b 136 26 34 348 67 174 b 397 -232 204 -121 290 -211 l 420 -237 z "},")":{"ha":503,"x_min":0,"x_max":0,"o":"m 63 -7 l 34 -7 l 83 -237 l 106 -232 b 367 26 213 -210 298 -121 b 469 547 435 174 469 348 b 367 1068 469 745 435 919 b 106 1326 299 1215 213 1304 l 83 1331 l 34 1101 l 63 1101 b 164 948 90 1101 129 1062 b 214 547 197 838 214 704 b 164 145 214 389 197 255 b 63 -7 129 31 90 -7 z "},"*":{"ha":589,"x_min":0,"x_max":0,"o":"m 196 1172 l 219 1040 l 126 1120 l 20 964 l 188 894 l 20 824 l 126 669 l 219 749 l 196 617 l 393 617 l 369 749 l 463 669 l 568 824 l 401 894 l 568 964 l 463 1120 l 369 1040 l 393 1172 z "},"+":{"ha":699,"x_min":0,"x_max":0,"o":"m 24 345 l 230 345 l 230 71 l 469 71 l 469 345 l 675 345 l 675 585 l 469 585 l 469 859 l 230 859 l 230 585 l 24 585 z "},",":{"ha":429,"x_min":0,"x_max":0,"o":"m 27 104 b 140 -57 27 24 79 -32 b 113 -90 140 -67 135 -78 b 62 -170 89 -103 34 -130 b 124 -197 76 -191 98 -192 b 199 -197 153 -202 178 -203 b 313 -127 247 -182 287 -155 b 402 101 365 -68 402 -1 b 213 291 402 202 313 299 l 171 288 l 158 283 b 27 104 86 261 27 188 z "},"-":{"ha":631,"x_min":0,"x_max":0,"o":"m 24 345 l 607 345 l 607 585 l 24 585 z "},".":{"ha":415,"x_min":0,"x_max":0,"o":"m 207 -75 b 388 105 306 -75 388 7 b 207 286 388 203 305 286 b 27 105 109 286 27 203 b 207 -75 27 6 108 -75 z "},"/":{"ha":729,"x_min":0,"x_max":0,"o":"m 486 1257 l 0 -163 l 242 -163 l 729 1257 z "},":":{"ha":415,"x_min":0,"x_max":0,"o":"m 207 570 b 388 749 306 570 388 651 b 207 930 388 847 305 930 b 27 749 109 930 27 848 b 207 570 27 650 108 570 z m 207 -75 b 388 105 306 -75 388 7 b 207 286 388 203 305 286 b 27 105 109 286 27 203 b 207 -75 27 6 108 -75 z m 31 760 z "},";":{"ha":431,"x_min":0,"x_max":0,"o":"m 221 570 b 401 749 319 570 401 651 b 221 930 401 847 319 930 b 40 749 122 930 40 848 b 221 570 40 650 122 570 z m 44 760 z m 27 118 b 140 -43 27 38 80 -18 b 113 -77 140 -54 136 -64 b 62 -157 89 -90 34 -116 b 125 -183 77 -177 98 -178 b 200 -183 154 -189 178 -190 b 313 -113 248 -169 288 -142 b 403 115 364 -55 414 12 b 213 305 391 215 313 312 l 171 302 l 159 296 b 27 118 87 275 27 202 z "},"<":{"ha":857,"x_min":0,"x_max":0,"o":"m 837 923 l 0 441 l 837 -41 l 837 229 l 469 441 l 837 653 z "},"=":{"ha":658,"x_min":0,"x_max":0,"o":"m 31 180 l 627 180 l 627 420 l 31 420 z m 31 509 l 627 509 l 627 749 l 31 749 z "},">":{"ha":857,"x_min":0,"x_max":0,"o":"m 20 923 l 20 653 l 388 441 l 20 229 l 20 -41 l 857 441 z "},"?":{"ha":815,"x_min":0,"x_max":0,"o":"m 401 -58 b 565 102 491 -58 565 13 b 401 267 565 192 490 267 b 237 105 312 267 237 195 b 401 -58 237 15 311 -58 z m 406 864 b 500 771 457 864 499 819 b 467 710 499 760 491 739 b 396 633 441 679 418 654 b 290 498 352 591 317 546 b 252 316 264 451 252 390 l 252 293 l 539 294 l 533 302 b 559 440 520 366 530 409 b 672 556 594 477 632 516 b 781 771 724 607 782 670 b 671 1035 781 873 744 962 b 407 1144 598 1107 509 1144 b 143 1035 305 1144 216 1107 b 34 771 71 962 34 873 l 34 747 l 313 747 l 313 771 b 406 864 314 819 355 864 z "},"@":{"ha":1497,"x_min":0,"x_max":0,"o":"m 985 111 b 1055 97 1008 103 1031 99 b 1366 231 1188 88 1294 132 b 1470 553 1435 327 1470 435 b 1269 1068 1470 781 1391 944 b 749 1268 1144 1191 978 1268 b 233 1058 546 1268 373 1198 b 27 544 96 921 27 748 b 234 30 27 339 96 166 b 750 -174 371 -106 545 -174 b 1055 -131 874 -174 966 -173 l 1075 -121 z m 1213 555 b 1184 426 1213 522 1203 478 b 1099 340 1166 377 1139 351 b 1067 352 1093 338 1083 339 b 1047 419 1057 360 1047 380 l 1046 861 l 813 861 l 813 829 b 709 860 787 844 736 860 b 496 758 624 860 552 825 b 411 538 440 692 411 618 b 505 312 411 450 443 373 b 719 218 566 250 639 218 b 840 247 761 218 812 227 b 978 114 869 184 914 139 l 961 106 b 750 81 909 83 822 81 b 417 212 614 81 504 124 b 284 545 328 298 284 407 b 416 879 284 682 328 792 b 750 1010 504 966 614 1010 l 777 1010 b 1213 555 1041 997 1213 822 z m 814 537 b 732 456 812 481 783 456 b 652 538 686 456 652 492 b 726 619 652 580 686 617 l 727 618 l 733 618 b 814 537 781 618 814 591 z "},"A":{"ha":1173,"x_min":0,"x_max":0,"o":"m 587 532 l 656 384 l 516 384 z m 317 0 l 398 166 l 774 166 l 855 0 l 1145 0 l 618 1092 l 554 1092 l 27 0 z "},"B":{"ha":937,"x_min":0,"x_max":0,"o":"m 733 648 b 772 784 752 681 772 738 b 668 999 772 866 739 939 b 397 1093 593 1061 502 1093 l 68 1093 l 68 0 l 514 0 b 804 104 630 0 731 35 b 910 353 874 172 910 256 b 733 648 910 477 840 598 z m 514 262 l 334 262 l 334 480 b 512 479 396 480 449 482 b 598 444 544 477 572 466 b 633 368 622 423 633 399 b 514 262 633 306 578 262 z m 476 762 b 390 685 476 717 434 689 b 334 681 369 683 351 682 l 334 832 l 397 832 b 476 762 438 832 476 802 z "},"C":{"ha":1107,"x_min":0,"x_max":0,"o":"m 667 1102 l 634 1102 b 197 939 465 1102 318 1047 b 27 546 84 830 27 698 b 197 154 27 394 84 262 b 634 -7 318 47 464 -7 b 875 37 720 -7 801 7 b 1063 161 949 68 1010 109 l 1080 178 l 888 368 l 870 351 b 635 260 804 290 727 260 b 402 344 543 260 466 288 b 305 545 336 400 305 466 b 402 747 305 624 336 690 b 635 831 466 803 543 831 b 869 740 726 831 803 801 l 887 723 l 1079 914 l 1062 931 b 666 1099 969 1020 835 1091 z "},"D":{"ha":1074,"x_min":0,"x_max":0,"o":"m 68 1093 l 68 0 l 382 0 b 894 160 585 0 758 54 b 1047 546 996 258 1047 388 b 894 933 1047 704 996 834 b 430 1093 784 1028 623 1093 l 406 1093 l 406 1093 z m 769 547 b 391 267 744 362 608 267 l 361 267 l 359 828 l 429 828 b 769 547 620 828 769 729 z "},"E":{"ha":849,"x_min":0,"x_max":0,"o":"m 68 -1 l 822 -1 l 822 264 l 348 264 l 348 414 l 712 414 l 712 680 l 348 680 l 348 829 l 822 829 l 822 1096 l 68 1096 z "},"F":{"ha":849,"x_min":0,"x_max":0,"o":"m 68 -1 l 348 -1 l 348 414 l 712 414 l 712 680 l 348 680 l 348 829 l 822 829 l 822 1096 l 68 1096 z "},"G":{"ha":1257,"x_min":0,"x_max":0,"o":"m 647 1102 l 628 1102 b 197 939 460 1102 315 1047 b 27 546 84 830 27 698 b 197 154 27 393 84 261 b 628 -8 314 46 460 -8 b 1061 155 796 -8 941 47 b 1227 616 1172 261 1244 410 l 1226 637 l 593 637 l 593 396 l 906 396 b 631 260 852 320 751 260 b 400 344 539 260 464 288 b 304 546 336 401 304 467 b 400 748 304 625 336 691 b 631 832 464 805 540 832 b 861 741 719 832 795 802 l 879 724 l 1079 914 l 1062 931 b 647 1100 965 1021 823 1095 z "},"H":{"ha":1034,"x_min":0,"x_max":0,"o":"m 68 0 l 334 0 l 334 414 l 700 414 l 700 0 l 966 0 l 966 1093 l 700 1093 l 700 680 l 334 680 l 334 1093 l 68 1093 z "},"I":{"ha":403,"x_min":0,"x_max":0,"o":"m 335 0 l 335 1093 l 68 1093 l 68 0 z "},"J":{"ha":880,"x_min":0,"x_max":0,"o":"m 317 256 l 311 256 b 178 299 256 256 214 271 l 156 317 l 20 81 l 38 69 b 310 -12 113 16 202 -11 l 318 -12 b 675 117 458 -10 579 34 b 812 432 766 203 812 309 l 812 647 l 807 1092 l 528 1093 l 533 650 l 533 442 b 317 256 533 336 428 256 z "},"K":{"ha":1017,"x_min":0,"x_max":0,"o":"m 68 0 l 334 0 l 334 406 l 664 0 l 989 0 l 585 539 l 933 1093 l 624 1093 l 334 674 l 334 1093 l 68 1093 z "},"L":{"ha":849,"x_min":0,"x_max":0,"o":"m 68 0 l 822 0 l 822 266 l 335 266 l 335 1093 l 68 1093 z "},"M":{"ha":1301,"x_min":0,"x_max":0,"o":"m 68 1096 l 68 0 l 335 0 l 335 404 l 651 1 l 966 404 l 966 0 l 1234 0 l 1234 1096 l 1179 1096 l 651 401 l 123 1096 z "},"N":{"ha":1109,"x_min":0,"x_max":0,"o":"m 68 1096 l 68 0 l 343 0 l 343 574 l 982 0 l 1042 0 l 1042 1096 l 766 1096 l 766 521 l 126 1096 z "},"O":{"ha":1219,"x_min":0,"x_max":0,"o":"m 197 939 b 27 546 84 830 27 698 b 197 154 27 394 84 262 b 609 -7 316 47 441 -7 b 1021 154 777 -7 902 47 b 1192 546 1134 262 1192 393 b 1021 939 1192 698 1134 830 b 609 1102 901 1047 776 1102 b 197 939 442 1102 317 1047 z m 819 749 b 916 547 884 692 916 626 b 819 346 916 468 884 401 b 609 262 754 290 699 262 b 398 346 518 262 462 290 b 302 547 334 402 302 468 b 398 749 302 626 334 692 b 609 833 462 805 517 833 b 819 749 699 833 755 805 z "},"P":{"ha":958,"x_min":0,"x_max":0,"o":"m 335 0 l 335 304 l 493 304 b 811 420 618 304 727 343 b 931 698 890 495 931 589 b 811 978 931 807 891 901 b 499 1093 729 1054 622 1093 l 68 1093 l 68 0 z m 654 698 b 499 569 654 623 578 569 l 345 570 l 345 828 l 499 828 b 654 698 577 828 654 773 z "},"Q":{"ha":1297,"x_min":0,"x_max":0,"o":"m 197 939 b 27 546 84 830 27 698 b 197 155 27 393 84 262 b 628 -7 314 48 459 -7 b 873 40 717 -7 799 8 b 1225 -51 966 -13 1078 -42 l 1248 -53 l 1270 198 l 1245 200 b 1120 217 1197 203 1156 208 b 1232 545 1195 312 1232 422 b 1060 938 1232 697 1175 829 b 628 1102 940 1047 795 1102 b 197 939 460 1102 315 1047 z m 484 527 l 467 263 l 492 262 b 616 215 547 258 580 242 b 398 306 531 218 459 247 b 302 524 333 366 302 437 b 398 742 302 610 333 681 b 628 833 461 803 537 833 b 858 742 717 833 793 803 b 954 524 923 681 954 610 b 888 338 954 453 932 392 b 864 361 879 346 871 355 b 509 525 759 453 672 513 z "},"R":{"ha":985,"x_min":0,"x_max":0,"o":"m 336 0 l 336 427 l 660 0 l 985 0 l 723 392 b 838 486 774 415 803 439 b 911 699 886 552 911 623 l 911 726 b 799 980 911 849 868 914 b 658 1065 758 1018 711 1047 b 467 1093 596 1084 533 1093 l 68 1093 l 68 0 z m 492 573 l 434 573 l 434 574 l 335 574 l 335 828 l 452 828 b 591 792 502 828 562 815 b 633 703 619 766 633 737 b 492 573 633 628 565 573 z "},"S":{"ha":839,"x_min":0,"x_max":0,"o":"m 299 375 l 20 318 l 23 296 b 416 -10 50 121 216 -10 b 812 327 634 -10 812 139 b 523 630 812 485 679 590 b 319 749 431 653 319 676 b 417 832 319 795 364 832 b 513 716 486 832 513 784 l 794 773 l 791 794 b 415 1101 767 967 615 1101 b 35 764 196 1101 35 950 b 315 455 35 610 163 500 b 530 343 412 426 530 415 b 414 259 530 301 470 259 l 400 259 l 400 259 b 299 346 348 266 299 306 z "},"T":{"ha":907,"x_min":0,"x_max":0,"o":"m 27 828 l 307 828 l 310 0 l 612 0 l 601 828 l 880 828 l 880 1093 l 27 1093 z "},"U":{"ha":1115,"x_min":0,"x_max":0,"o":"m 557 260 b 402 314 496 260 445 277 b 336 445 358 352 336 394 l 336 1093 l 68 1093 l 68 436 b 204 120 68 313 114 207 b 558 -10 295 34 414 -10 b 911 120 701 -10 820 34 b 1047 436 1001 207 1047 313 l 1047 1093 l 779 1093 l 779 445 b 557 260 779 338 668 260 z "},"V":{"ha":1162,"x_min":0,"x_max":0,"o":"m 848 1093 l 579 530 l 311 1093 l 27 1093 l 551 0 l 609 0 l 1135 1093 z "},"W":{"ha":1454,"x_min":0,"x_max":0,"o":"m 485 0 l 539 0 l 725 475 l 915 0 l 969 0 l 1427 1093 l 1138 1093 l 942 617 l 740 1104 l 715 1104 l 512 617 l 315 1093 l 27 1093 z "},"X":{"ha":1062,"x_min":0,"x_max":0,"o":"m 355 547 l 27 1 l 334 0 l 531 302 l 728 0 l 1035 0 l 705 547 l 1035 1093 l 728 1093 l 531 792 l 334 1093 l 27 1093 z "},"Y":{"ha":1078,"x_min":0,"x_max":0,"o":"m 389 466 l 389 0 l 689 0 l 689 466 l 1050 1093 l 747 1093 l 539 741 l 330 1093 l 27 1093 z "},"Z":{"ha":946,"x_min":0,"x_max":0,"o":"m 41 828 l 471 828 l 27 0 l 905 0 l 905 255 l 475 255 l 919 1093 l 41 1093 z "},"[":{"ha":593,"x_min":0,"x_max":0,"o":"m 44 547 b 297 294 44 407 158 294 b 549 547 435 294 549 408 b 297 800 549 685 435 800 b 44 547 158 800 44 685 z "},"\\":{"ha":701,"x_min":0,"x_max":0,"o":"m 215 1257 l 0 1257 l 486 -163 l 701 -163 z "},"]":{"ha":593,"x_min":0,"x_max":0,"o":"m 44 547 b 297 294 44 407 158 294 b 549 547 435 294 549 408 b 297 800 549 685 435 800 b 44 547 158 800 44 685 z "},"^":{"ha":699,"x_min":0,"x_max":0,"o":"m 0 551 l 245 551 l 349 728 l 453 551 l 699 551 l 348 1149 z "},"_":{"ha":867,"x_min":0,"x_max":0,"o":"m 0 -98 l 867 -98 l 867 99 l 0 99 z "},"`":{"ha":431,"x_min":0,"x_max":0,"o":"m 21 1093 l 258 706 l 410 780 l 253 1208 z "},"a":{"ha":1173,"x_min":0,"x_max":0,"o":"m 587 532 l 656 384 l 516 384 z m 317 0 l 398 166 l 774 166 l 855 0 l 1145 0 l 618 1092 l 554 1092 l 27 0 z "},"b":{"ha":937,"x_min":0,"x_max":0,"o":"m 733 648 b 772 784 752 681 772 738 b 668 999 772 866 739 939 b 397 1093 593 1061 502 1093 l 68 1093 l 68 0 l 514 0 b 804 104 630 0 731 35 b 910 353 874 172 910 256 b 733 648 910 477 840 598 z m 514 262 l 334 262 l 334 480 b 512 479 396 480 449 482 b 598 444 544 477 572 466 b 633 368 622 423 633 399 b 514 262 633 306 578 262 z m 476 762 b 390 685 476 717 434 689 b 334 681 369 683 351 682 l 334 832 l 397 832 b 476 762 438 832 476 802 z "},"c":{"ha":1107,"x_min":0,"x_max":0,"o":"m 667 1102 l 634 1102 b 197 939 465 1102 318 1047 b 27 546 84 830 27 698 b 197 154 27 394 84 262 b 634 -7 318 47 464 -7 b 875 37 720 -7 801 7 b 1063 161 949 68 1010 109 l 1080 178 l 888 368 l 870 351 b 635 260 804 290 727 260 b 402 344 543 260 466 288 b 305 545 336 400 305 466 b 402 747 305 624 336 690 b 635 831 466 803 543 831 b 869 740 726 831 803 801 l 887 723 l 1079 914 l 1062 931 b 666 1099 969 1020 835 1091 z "},"d":{"ha":1074,"x_min":0,"x_max":0,"o":"m 68 1093 l 68 0 l 382 0 b 894 160 585 0 758 54 b 1047 546 996 258 1047 388 b 894 933 1047 704 996 834 b 430 1093 784 1028 623 1093 l 406 1093 l 406 1093 z m 769 547 b 391 267 744 362 608 267 l 361 267 l 359 828 l 429 828 b 769 547 620 828 769 729 z "},"e":{"ha":849,"x_min":0,"x_max":0,"o":"m 68 -1 l 822 -1 l 822 264 l 348 264 l 348 414 l 712 414 l 712 680 l 348 680 l 348 829 l 822 829 l 822 1096 l 68 1096 z "},"f":{"ha":849,"x_min":0,"x_max":0,"o":"m 68 -1 l 348 -1 l 348 414 l 712 414 l 712 680 l 348 680 l 348 829 l 822 829 l 822 1096 l 68 1096 z "},"g":{"ha":1257,"x_min":0,"x_max":0,"o":"m 647 1102 l 628 1102 b 197 939 460 1102 315 1047 b 27 546 84 830 27 698 b 197 154 27 393 84 261 b 628 -8 314 46 460 -8 b 1061 155 796 -8 941 47 b 1227 616 1172 261 1244 410 l 1226 637 l 593 637 l 593 396 l 906 396 b 631 260 852 320 751 260 b 400 344 539 260 464 288 b 304 546 336 401 304 467 b 400 748 304 625 336 691 b 631 832 464 805 540 832 b 861 741 719 832 795 802 l 879 724 l 1079 914 l 1062 931 b 647 1100 965 1021 823 1095 z "},"h":{"ha":1034,"x_min":0,"x_max":0,"o":"m 68 0 l 334 0 l 334 414 l 700 414 l 700 0 l 966 0 l 966 1093 l 700 1093 l 700 680 l 334 680 l 334 1093 l 68 1093 z "},"i":{"ha":403,"x_min":0,"x_max":0,"o":"m 335 0 l 335 1093 l 68 1093 l 68 0 z "},"j":{"ha":880,"x_min":0,"x_max":0,"o":"m 317 256 l 311 256 b 178 299 256 256 214 271 l 156 317 l 20 81 l 38 69 b 310 -12 113 16 202 -11 l 318 -12 b 675 117 458 -10 579 34 b 812 432 766 203 812 309 l 812 647 l 807 1092 l 528 1093 l 533 650 l 533 442 b 317 256 533 336 428 256 z "},"k":{"ha":1017,"x_min":0,"x_max":0,"o":"m 68 0 l 334 0 l 334 406 l 664 0 l 989 0 l 585 539 l 933 1093 l 624 1093 l 334 674 l 334 1093 l 68 1093 z "},"l":{"ha":849,"x_min":0,"x_max":0,"o":"m 68 0 l 822 0 l 822 266 l 335 266 l 335 1093 l 68 1093 z "},"m":{"ha":1301,"x_min":0,"x_max":0,"o":"m 68 1096 l 68 0 l 335 0 l 335 404 l 651 1 l 966 404 l 966 0 l 1234 0 l 1234 1096 l 1179 1096 l 651 401 l 123 1096 z "},"n":{"ha":1109,"x_min":0,"x_max":0,"o":"m 68 1096 l 68 0 l 343 0 l 343 574 l 982 0 l 1042 0 l 1042 1096 l 766 1096 l 766 521 l 126 1096 z "},"o":{"ha":1219,"x_min":0,"x_max":0,"o":"m 197 939 b 27 546 84 830 27 698 b 197 154 27 394 84 262 b 609 -7 316 47 441 -7 b 1021 154 777 -7 902 47 b 1192 546 1134 262 1192 393 b 1021 939 1192 698 1134 830 b 609 1102 901 1047 776 1102 b 197 939 442 1102 317 1047 z m 819 749 b 916 547 884 692 916 626 b 819 346 916 468 884 401 b 609 262 754 290 699 262 b 398 346 518 262 462 290 b 302 547 334 402 302 468 b 398 749 302 626 334 692 b 609 833 462 805 517 833 b 819 749 699 833 755 805 z "},"p":{"ha":958,"x_min":0,"x_max":0,"o":"m 335 0 l 335 304 l 493 304 b 811 420 618 304 727 343 b 931 698 890 495 931 589 b 811 978 931 807 891 901 b 499 1093 729 1054 622 1093 l 68 1093 l 68 0 z m 654 698 b 499 569 654 623 578 569 l 345 570 l 345 828 l 499 828 b 654 698 577 828 654 773 z "},"q":{"ha":1297,"x_min":0,"x_max":0,"o":"m 197 939 b 27 546 84 830 27 698 b 197 155 27 393 84 262 b 628 -7 314 48 459 -7 b 873 40 717 -7 799 8 b 1225 -51 966 -13 1078 -42 l 1248 -53 l 1270 198 l 1245 200 b 1120 217 1197 203 1156 208 b 1232 545 1195 312 1232 422 b 1060 938 1232 697 1175 829 b 628 1102 940 1047 795 1102 b 197 939 460 1102 315 1047 z m 484 527 l 467 263 l 492 262 b 616 215 547 258 580 242 b 398 306 531 218 459 247 b 302 524 333 366 302 437 b 398 742 302 610 333 681 b 628 833 461 803 537 833 b 858 742 717 833 793 803 b 954 524 923 681 954 610 b 888 338 954 453 932 392 b 864 361 879 346 871 355 b 509 525 759 453 672 513 z "},"r":{"ha":985,"x_min":0,"x_max":0,"o":"m 336 0 l 336 427 l 660 0 l 985 0 l 723 392 b 838 486 774 415 803 439 b 911 699 886 552 911 623 l 911 726 b 799 980 911 849 868 914 b 658 1065 758 1018 711 1047 b 467 1093 596 1084 533 1093 l 68 1093 l 68 0 z m 492 573 l 434 573 l 434 574 l 335 574 l 335 828 l 452 828 b 591 792 502 828 562 815 b 633 703 619 766 633 737 b 492 573 633 628 565 573 z "},"s":{"ha":839,"x_min":0,"x_max":0,"o":"m 299 375 l 20 318 l 23 296 b 416 -10 50 121 216 -10 b 812 327 634 -10 812 139 b 523 630 812 485 679 590 b 319 749 431 653 319 676 b 417 832 319 795 364 832 b 513 716 486 832 513 784 l 794 773 l 791 794 b 415 1101 767 967 615 1101 b 35 764 196 1101 35 950 b 315 455 35 610 163 500 b 530 343 412 426 530 415 b 414 259 530 301 470 259 l 400 259 l 400 259 b 299 346 348 266 299 306 z "},"t":{"ha":907,"x_min":0,"x_max":0,"o":"m 27 828 l 307 828 l 310 0 l 612 0 l 601 828 l 880 828 l 880 1093 l 27 1093 z "},"u":{"ha":1115,"x_min":0,"x_max":0,"o":"m 557 260 b 402 314 496 260 445 277 b 336 445 358 352 336 394 l 336 1093 l 68 1093 l 68 436 b 204 120 68 313 114 207 b 558 -10 295 34 414 -10 b 911 120 701 -10 820 34 b 1047 436 1001 207 1047 313 l 1047 1093 l 779 1093 l 779 445 b 557 260 779 338 668 260 z "},"v":{"ha":1162,"x_min":0,"x_max":0,"o":"m 848 1093 l 579 530 l 311 1093 l 27 1093 l 551 0 l 609 0 l 1135 1093 z "},"w":{"ha":1454,"x_min":0,"x_max":0,"o":"m 485 0 l 539 0 l 725 475 l 915 0 l 969 0 l 1427 1093 l 1138 1093 l 942 617 l 740 1104 l 715 1104 l 512 617 l 315 1093 l 27 1093 z "},"x":{"ha":1062,"x_min":0,"x_max":0,"o":"m 355 547 l 27 1 l 334 0 l 531 302 l 728 0 l 1035 0 l 705 547 l 1035 1093 l 728 1093 l 531 792 l 334 1093 l 27 1093 z "},"y":{"ha":1078,"x_min":0,"x_max":0,"o":"m 389 466 l 389 0 l 689 0 l 689 466 l 1050 1093 l 747 1093 l 539 741 l 330 1093 l 27 1093 z "},"z":{"ha":946,"x_min":0,"x_max":0,"o":"m 41 828 l 471 828 l 27 0 l 905 0 l 905 255 l 475 255 l 919 1093 l 41 1093 z "},"{":{"ha":680,"x_min":0,"x_max":0,"o":"m 44 547 b 340 250 44 384 178 250 b 549 337 421 250 492 280 b 636 547 607 394 636 465 b 549 757 636 628 607 699 b 340 844 492 814 421 844 b 44 547 178 844 44 709 z m 429 546 b 340 457 429 497 389 457 b 252 546 291 457 252 497 b 340 635 252 595 291 635 b 429 546 389 635 429 595 z "},"|":{"ha":402,"x_min":0,"x_max":0,"o":"m 112 1257 l 112 -163 l 290 -163 l 290 1257 z "},"}":{"ha":680,"x_min":0,"x_max":0,"o":"m 44 547 b 340 250 44 384 178 250 b 549 337 421 250 492 280 b 636 547 607 394 636 465 b 549 757 636 628 607 699 b 340 844 492 814 421 844 b 44 547 178 844 44 709 z m 429 546 b 340 457 429 497 389 457 b 252 546 291 457 252 497 b 340 635 252 595 291 635 b 429 546 389 635 429 595 z "},"~":{"ha":849,"x_min":0,"x_max":0,"o":"m 826 491 l 829 737 l 787 691 b 673 601 745 644 706 615 b 458 653 648 591 575 603 b 181 712 330 707 239 731 b 21 597 126 695 72 653 l 20 348 l 66 388 b 200 488 121 443 167 476 b 416 447 228 497 301 487 b 658 377 525 407 605 384 b 822 461 719 369 822 461 z "},"¡":{"ha":403,"x_min":0,"x_max":0,"o":"m 201 663 b 366 827 291 663 366 737 b 201 988 366 916 290 988 b 37 824 111 988 37 914 b 201 663 37 734 112 663 z m 50 -162 l 48 -187 l 352 -187 l 315 623 l 86 623 l 85 600 b 50 -162 77 328 61 105 z "},"¢":{"ha":932,"x_min":0,"x_max":0,"o":"m 271 545 b 346 729 271 617 295 678 b 529 806 396 781 456 806 b 714 729 600 806 661 781 l 731 713 l 899 880 l 881 897 b 610 1035 814 962 722 1017 l 610 1259 l 420 1258 l 420 1030 b 180 895 330 1011 249 965 b 34 545 83 799 34 681 b 180 193 34 408 83 289 b 420 59 249 124 329 79 l 420 -164 l 610 -164 l 610 53 b 881 193 722 71 813 125 b 898 210 887 199 893 205 l 730 378 l 714 361 b 529 285 663 310 602 285 b 271 545 385 285 271 401 z "},"£":{"ha":840,"x_min":0,"x_max":0,"o":"m 567 855 l 571 855 b 645 840 602 854 627 849 l 665 830 l 801 1065 l 774 1075 b 677 1110 730 1091 697 1103 b 572 1122 653 1118 619 1121 l 563 1122 b 241 987 438 1120 330 1074 b 105 660 151 896 105 787 l 106 605 l 34 605 l 34 435 l 106 435 l 106 241 l 49 241 l 49 -24 l 806 -24 l 806 241 l 371 241 l 371 275 l 372 275 l 372 435 l 602 435 l 602 605 l 372 605 l 372 659 b 567 855 372 763 458 855 z "},"¤":{"ha":840,"x_min":0,"x_max":0,"o":"m 484 609 b 483 484 518 574 518 518 b 358 485 448 449 392 451 b 359 610 324 520 325 577 b 484 609 394 645 451 643 z m 277 806 l 153 932 l 41 821 l 165 695 b 161 403 115 608 111 493 l 34 279 l 145 167 l 272 291 b 566 287 359 238 475 236 l 691 162 l 803 272 l 679 398 b 681 693 731 486 732 603 l 806 816 l 694 929 l 568 805 b 277 806 480 855 366 856 z "},"¥":{"ha":1022,"x_min":0,"x_max":0,"o":"m 34 1117 l 312 606 l 59 606 l 59 423 l 378 423 l 378 384 l 59 384 l 59 215 l 378 215 l 378 -24 l 644 -24 l 644 215 l 963 215 l 963 384 l 644 384 l 644 423 l 963 423 l 963 606 l 709 606 l 988 1117 l 685 1117 l 511 796 l 336 1117 z "},"¦":{"ha":402,"x_min":0,"x_max":0,"o":"m 112 1257 l 112 623 l 290 623 l 290 1257 z m 290 460 l 112 460 l 112 -163 l 290 -163 z "},"§":{"ha":767,"x_min":0,"x_max":0,"o":"m 300 550 b 386 614 311 597 335 616 b 468 544 437 612 460 592 b 380 479 456 498 431 478 b 300 550 329 480 307 500 z m 631 314 b 736 563 700 382 736 465 b 686 727 736 627 720 683 b 464 877 628 801 554 852 b 392 898 426 889 401 896 b 336 931 389 899 368 910 b 305 954 321 940 311 948 b 300 979 304 955 300 962 b 386 1064 300 1025 340 1064 b 471 979 431 1064 471 1025 l 471 956 l 736 956 l 736 979 b 633 1227 736 1075 701 1159 b 385 1330 565 1295 481 1330 b 136 1227 288 1330 204 1295 b 33 979 68 1158 33 1075 b 82 836 33 911 51 877 b 134 778 98 815 115 796 b 31 531 66 709 31 626 b 79 368 31 468 46 413 b 293 210 134 293 206 240 b 427 162 379 179 341 193 b 468 99 473 145 479 128 b 381 31 451 53 418 31 l 366 31 b 296 115 328 37 296 72 l 296 138 l 31 138 l 31 115 b 134 -133 31 19 66 -65 b 382 -236 202 -201 286 -236 b 630 -133 478 -236 562 -201 b 734 115 699 -65 734 19 b 631 314 734 212 685 266 z "},"©":{"ha":719,"x_min":0,"x_max":0,"o":"m 359 1117 b 127 1020 269 1117 190 1084 b 31 788 63 957 31 878 b 127 556 31 698 63 619 b 359 459 191 492 269 459 b 592 556 449 459 528 492 b 688 788 656 619 688 698 b 592 1020 688 878 656 957 b 359 1117 529 1084 450 1117 z m 165 788 b 359 594 165 682 253 594 b 496 650 419 594 464 620 l 514 667 l 432 749 l 416 733 b 359 709 399 716 381 709 b 281 788 316 709 281 744 b 359 867 281 831 317 867 b 414 843 381 867 399 859 l 431 826 l 515 909 l 496 926 b 435 966 477 943 457 957 b 435 966 427 970 444 964 l 395 983 l 359 983 b 165 788 256 981 165 893 z m 577 788 b 359 570 577 669 479 570 b 142 788 241 570 142 669 b 359 1006 142 908 240 1006 b 577 788 479 1006 577 908 z "},"­":{"ha":1389,"x_min":0,"x_max":0,"o":"m 433 0 b 273 138 356 0 273 62 l 0 80 b 434 -278 31 -123 222 -278 b 870 138 664 -278 870 -92 b 546 510 870 329 718 460 b 295 694 451 538 295 571 b 434 833 295 770 358 833 b 572 695 509 833 572 770 l 845 752 b 433 1111 817 955 643 1111 b 15 695 202 1111 15 925 b 329 315 15 509 162 372 b 591 140 424 282 591 265 b 431 1 591 64 507 1 z "},"®":{"ha":719,"x_min":0,"x_max":0,"o":"m 577 788 b 507 628 577 724 552 671 l 443 728 b 502 836 475 748 502 790 l 502 846 b 462 940 502 881 488 913 b 357 981 434 968 398 981 l 257 981 b 359 1006 288 998 321 1006 b 577 788 479 1006 577 908 z m 385 844 b 364 819 385 829 375 819 l 339 819 l 339 867 l 353 867 b 385 844 376 867 385 860 z m 359 1117 b 127 1020 269 1117 190 1084 b 31 788 63 957 31 878 b 127 556 31 698 63 619 b 359 459 191 492 269 459 b 592 556 449 459 528 492 b 688 788 656 619 688 698 b 592 1020 688 878 656 957 b 359 1117 529 1084 450 1117 z m 256 596 l 339 596 l 339 673 l 389 596 l 464 596 b 359 570 433 579 398 570 b 256 596 321 570 287 579 z m 224 959 l 224 618 b 142 788 173 659 142 718 b 224 959 142 858 173 918 z "},"¯":{"ha":1351,"x_min":0,"x_max":0,"o":"m 1045 817 b 920 901 1029 868 980 901 l 790 901 l 773 762 b 752 595 766 706 759 650 l 638 942 l 456 622 l 497 959 l 275 700 l 119 955 l 94 748 l 94 996 l 1258 996 l 1258 867 b 1174 903 1236 890 1207 903 b 1045 817 1116 903 1065 862 z m 24 1065 l 24 28 l 1327 28 l 1327 1065 z m 1187 755 l 1258 755 l 1258 701 b 1187 755 1240 726 1217 744 z m 1171 760 b 1153 770 1163 763 1163 762 b 1165 789 1145 775 1157 789 b 1172 780 1170 789 1172 788 z m 1137 653 b 1155 646 1143 651 1148 649 b 1141 629 1155 638 1148 629 b 1134 636 1136 629 1133 632 z m 885 739 b 891 787 888 755 889 771 l 907 787 b 929 781 922 787 927 783 b 908 739 942 766 923 739 z m 165 518 l 181 518 l 192 609 l 254 507 l 337 605 l 308 363 z m 1043 727 b 1115 664 1057 698 1084 675 l 1021 664 l 1019 643 b 1133 515 1010 572 1064 515 b 1258 595 1186 515 1237 553 l 1258 97 l 791 97 l 1029 517 l 1044 517 l 976 647 b 1043 727 1006 664 1031 693 z m 652 522 l 525 522 l 553 570 l 636 570 b 652 522 641 553 646 537 z m 683 426 l 788 97 l 94 97 l 94 135 l 194 135 l 213 291 l 391 99 b 443 518 408 239 426 378 l 445 518 l 398 136 l 648 136 l 662 251 l 527 251 l 530 271 l 631 271 l 645 386 l 544 386 l 546 407 l 681 407 z m 907 520 l 903 520 l 821 372 b 776 517 806 421 791 469 l 857 517 l 867 595 z m 94 260 l 94 518 l 125 518 z "},"°":{"ha":464,"x_min":0,"x_max":0,"o":"m 302 1012 b 232 941 302 973 270 941 b 161 1012 193 941 161 972 b 232 1082 161 1050 194 1082 b 302 1012 270 1082 302 1050 z m 17 1011 b 232 796 17 894 115 796 b 447 1011 349 796 447 893 b 232 1227 447 1129 349 1227 b 17 1011 115 1227 17 1128 z "},"±":{"ha":1351,"x_min":0,"x_max":0,"o":"m 1045 817 b 920 901 1029 868 980 901 l 790 901 l 773 762 b 752 595 766 706 759 650 l 638 942 l 456 622 l 497 959 l 275 700 l 119 955 l 94 748 l 94 996 l 1258 996 l 1258 867 b 1174 903 1236 890 1207 903 b 1045 817 1116 903 1065 862 z m 24 1065 l 24 28 l 1327 28 l 1327 1065 z m 1187 755 l 1258 755 l 1258 701 b 1187 755 1240 726 1217 744 z m 1171 760 b 1153 770 1163 763 1163 762 b 1165 789 1145 775 1157 789 b 1172 780 1170 789 1172 788 z m 1137 653 b 1155 646 1143 651 1148 649 b 1141 629 1155 638 1148 629 b 1134 636 1136 629 1133 632 z m 885 739 b 891 787 888 755 889 771 l 907 787 b 929 781 922 787 927 783 b 908 739 942 766 923 739 z m 165 518 l 181 518 l 192 609 l 254 507 l 337 605 l 308 363 z m 1043 727 b 1115 664 1057 698 1084 675 l 1021 664 l 1019 643 b 1133 515 1010 572 1064 515 b 1258 595 1186 515 1237 553 l 1258 97 l 791 97 l 1029 517 l 1044 517 l 976 647 b 1043 727 1006 664 1031 693 z m 652 522 l 525 522 l 553 570 l 636 570 b 652 522 641 553 646 537 z m 683 426 l 788 97 l 94 97 l 94 135 l 194 135 l 213 291 l 391 99 b 443 518 408 239 426 378 l 445 518 l 398 136 l 648 136 l 662 251 l 527 251 l 530 271 l 631 271 l 645 386 l 544 386 l 546 407 l 681 407 z m 907 520 l 903 520 l 821 372 b 776 517 806 421 791 469 l 857 517 l 867 595 z m 94 260 l 94 518 l 125 518 z "},"²":{"ha":1351,"x_min":0,"x_max":0,"o":"m 1045 817 b 920 901 1029 868 980 901 l 790 901 l 773 762 b 752 595 766 706 759 650 l 638 942 l 456 622 l 497 959 l 275 700 l 119 955 l 94 748 l 94 996 l 1258 996 l 1258 867 b 1174 903 1236 890 1207 903 b 1045 817 1116 903 1065 862 z m 24 1065 l 24 28 l 1327 28 l 1327 1065 z m 1187 755 l 1258 755 l 1258 701 b 1187 755 1240 726 1217 744 z m 1171 760 b 1153 770 1163 763 1163 762 b 1165 789 1145 775 1157 789 b 1172 780 1170 789 1172 788 z m 1137 653 b 1155 646 1143 651 1148 649 b 1141 629 1155 638 1148 629 b 1134 636 1136 629 1133 632 z m 885 739 b 891 787 888 755 889 771 l 907 787 b 929 781 922 787 927 783 b 908 739 942 766 923 739 z m 165 518 l 181 518 l 192 609 l 254 507 l 337 605 l 308 363 z m 1043 727 b 1115 664 1057 698 1084 675 l 1021 664 l 1019 643 b 1133 515 1010 572 1064 515 b 1258 595 1186 515 1237 553 l 1258 97 l 791 97 l 1029 517 l 1044 517 l 976 647 b 1043 727 1006 664 1031 693 z m 652 522 l 525 522 l 553 570 l 636 570 b 652 522 641 553 646 537 z m 683 426 l 788 97 l 94 97 l 94 135 l 194 135 l 213 291 l 391 99 b 443 518 408 239 426 378 l 445 518 l 398 136 l 648 136 l 662 251 l 527 251 l 530 271 l 631 271 l 645 386 l 544 386 l 546 407 l 681 407 z m 907 520 l 903 520 l 821 372 b 776 517 806 421 791 469 l 857 517 l 867 595 z m 94 260 l 94 518 l 125 518 z "},"³":{"ha":1351,"x_min":0,"x_max":0,"o":"m 1045 817 b 920 901 1029 868 980 901 l 790 901 l 773 762 b 752 595 766 706 759 650 l 638 942 l 456 622 l 497 959 l 275 700 l 119 955 l 94 748 l 94 996 l 1258 996 l 1258 867 b 1174 903 1236 890 1207 903 b 1045 817 1116 903 1065 862 z m 24 1065 l 24 28 l 1327 28 l 1327 1065 z m 1187 755 l 1258 755 l 1258 701 b 1187 755 1240 726 1217 744 z m 1171 760 b 1153 770 1163 763 1163 762 b 1165 789 1145 775 1157 789 b 1172 780 1170 789 1172 788 z m 1137 653 b 1155 646 1143 651 1148 649 b 1141 629 1155 638 1148 629 b 1134 636 1136 629 1133 632 z m 885 739 b 891 787 888 755 889 771 l 907 787 b 929 781 922 787 927 783 b 908 739 942 766 923 739 z m 165 518 l 181 518 l 192 609 l 254 507 l 337 605 l 308 363 z m 1043 727 b 1115 664 1057 698 1084 675 l 1021 664 l 1019 643 b 1133 515 1010 572 1064 515 b 1258 595 1186 515 1237 553 l 1258 97 l 791 97 l 1029 517 l 1044 517 l 976 647 b 1043 727 1006 664 1031 693 z m 652 522 l 525 522 l 553 570 l 636 570 b 652 522 641 553 646 537 z m 683 426 l 788 97 l 94 97 l 94 135 l 194 135 l 213 291 l 391 99 b 443 518 408 239 426 378 l 445 518 l 398 136 l 648 136 l 662 251 l 527 251 l 530 271 l 631 271 l 645 386 l 544 386 l 546 407 l 681 407 z m 907 520 l 903 520 l 821 372 b 776 517 806 421 791 469 l 857 517 l 867 595 z m 94 260 l 94 518 l 125 518 z "},"´":{"ha":1351,"x_min":0,"x_max":0,"o":"m 1045 817 b 920 901 1029 868 980 901 l 790 901 l 773 762 b 752 595 766 706 759 650 l 638 942 l 456 622 l 497 959 l 275 700 l 119 955 l 94 748 l 94 996 l 1258 996 l 1258 867 b 1174 903 1236 890 1207 903 b 1045 817 1116 903 1065 862 z m 24 1065 l 24 28 l 1327 28 l 1327 1065 z m 1187 755 l 1258 755 l 1258 701 b 1187 755 1240 726 1217 744 z m 1171 760 b 1153 770 1163 763 1163 762 b 1165 789 1145 775 1157 789 b 1172 780 1170 789 1172 788 z m 1137 653 b 1155 646 1143 651 1148 649 b 1141 629 1155 638 1148 629 b 1134 636 1136 629 1133 632 z m 885 739 b 891 787 888 755 889 771 l 907 787 b 929 781 922 787 927 783 b 908 739 942 766 923 739 z m 165 518 l 181 518 l 192 609 l 254 507 l 337 605 l 308 363 z m 1043 727 b 1115 664 1057 698 1084 675 l 1021 664 l 1019 643 b 1133 515 1010 572 1064 515 b 1258 595 1186 515 1237 553 l 1258 97 l 791 97 l 1029 517 l 1044 517 l 976 647 b 1043 727 1006 664 1031 693 z m 652 522 l 525 522 l 553 570 l 636 570 b 652 522 641 553 646 537 z m 683 426 l 788 97 l 94 97 l 94 135 l 194 135 l 213 291 l 391 99 b 443 518 408 239 426 378 l 445 518 l 398 136 l 648 136 l 662 251 l 527 251 l 530 271 l 631 271 l 645 386 l 544 386 l 546 407 l 681 407 z m 907 520 l 903 520 l 821 372 b 776 517 806 421 791 469 l 857 517 l 867 595 z m 94 260 l 94 518 l 125 518 z "},"µ":{"ha":1351,"x_min":0,"x_max":0,"o":"m 1045 817 b 920 901 1029 868 980 901 l 790 901 l 773 762 b 752 595 766 706 759 650 l 638 942 l 456 622 l 497 959 l 275 700 l 119 955 l 94 748 l 94 996 l 1258 996 l 1258 867 b 1174 903 1236 890 1207 903 b 1045 817 1116 903 1065 862 z m 24 1065 l 24 28 l 1327 28 l 1327 1065 z m 1187 755 l 1258 755 l 1258 701 b 1187 755 1240 726 1217 744 z m 1171 760 b 1153 770 1163 763 1163 762 b 1165 789 1145 775 1157 789 b 1172 780 1170 789 1172 788 z m 1137 653 b 1155 646 1143 651 1148 649 b 1141 629 1155 638 1148 629 b 1134 636 1136 629 1133 632 z m 885 739 b 891 787 888 755 889 771 l 907 787 b 929 781 922 787 927 783 b 908 739 942 766 923 739 z m 165 518 l 181 518 l 192 609 l 254 507 l 337 605 l 308 363 z m 1043 727 b 1115 664 1057 698 1084 675 l 1021 664 l 1019 643 b 1133 515 1010 572 1064 515 b 1258 595 1186 515 1237 553 l 1258 97 l 791 97 l 1029 517 l 1044 517 l 976 647 b 1043 727 1006 664 1031 693 z m 652 522 l 525 522 l 553 570 l 636 570 b 652 522 641 553 646 537 z m 683 426 l 788 97 l 94 97 l 94 135 l 194 135 l 213 291 l 391 99 b 443 518 408 239 426 378 l 445 518 l 398 136 l 648 136 l 662 251 l 527 251 l 530 271 l 631 271 l 645 386 l 544 386 l 546 407 l 681 407 z m 907 520 l 903 520 l 821 372 b 776 517 806 421 791 469 l 857 517 l 867 595 z m 94 260 l 94 518 l 125 518 z "},"¶":{"ha":1351,"x_min":0,"x_max":0,"o":"m 1045 817 b 920 901 1029 868 980 901 l 790 901 l 773 762 b 752 595 766 706 759 650 l 638 942 l 456 622 l 497 959 l 275 700 l 119 955 l 94 748 l 94 996 l 1258 996 l 1258 867 b 1174 903 1236 890 1207 903 b 1045 817 1116 903 1065 862 z m 24 1065 l 24 28 l 1327 28 l 1327 1065 z m 1187 755 l 1258 755 l 1258 701 b 1187 755 1240 726 1217 744 z m 1171 760 b 1153 770 1163 763 1163 762 b 1165 789 1145 775 1157 789 b 1172 780 1170 789 1172 788 z m 1137 653 b 1155 646 1143 651 1148 649 b 1141 629 1155 638 1148 629 b 1134 636 1136 629 1133 632 z m 885 739 b 891 787 888 755 889 771 l 907 787 b 929 781 922 787 927 783 b 908 739 942 766 923 739 z m 165 518 l 181 518 l 192 609 l 254 507 l 337 605 l 308 363 z m 1043 727 b 1115 664 1057 698 1084 675 l 1021 664 l 1019 643 b 1133 515 1010 572 1064 515 b 1258 595 1186 515 1237 553 l 1258 97 l 791 97 l 1029 517 l 1044 517 l 976 647 b 1043 727 1006 664 1031 693 z m 652 522 l 525 522 l 553 570 l 636 570 b 652 522 641 553 646 537 z m 683 426 l 788 97 l 94 97 l 94 135 l 194 135 l 213 291 l 391 99 b 443 518 408 239 426 378 l 445 518 l 398 136 l 648 136 l 662 251 l 527 251 l 530 271 l 631 271 l 645 386 l 544 386 l 546 407 l 681 407 z m 907 520 l 903 520 l 821 372 b 776 517 806 421 791 469 l 857 517 l 867 595 z m 94 260 l 94 518 l 125 518 z "},"¼":{"ha":1351,"x_min":0,"x_max":0,"o":"m 1045 817 b 920 901 1029 868 980 901 l 790 901 l 773 762 b 752 595 766 706 759 650 l 638 942 l 456 622 l 497 959 l 275 700 l 119 955 l 94 748 l 94 996 l 1258 996 l 1258 867 b 1174 903 1236 890 1207 903 b 1045 817 1116 903 1065 862 z m 24 1065 l 24 28 l 1327 28 l 1327 1065 z m 1187 755 l 1258 755 l 1258 701 b 1187 755 1240 726 1217 744 z m 1171 760 b 1153 770 1163 763 1163 762 b 1165 789 1145 775 1157 789 b 1172 780 1170 789 1172 788 z m 1137 653 b 1155 646 1143 651 1148 649 b 1141 629 1155 638 1148 629 b 1134 636 1136 629 1133 632 z m 885 739 b 891 787 888 755 889 771 l 907 787 b 929 781 922 787 927 783 b 908 739 942 766 923 739 z m 165 518 l 181 518 l 192 609 l 254 507 l 337 605 l 308 363 z m 1043 727 b 1115 664 1057 698 1084 675 l 1021 664 l 1019 643 b 1133 515 1010 572 1064 515 b 1258 595 1186 515 1237 553 l 1258 97 l 791 97 l 1029 517 l 1044 517 l 976 647 b 1043 727 1006 664 1031 693 z m 652 522 l 525 522 l 553 570 l 636 570 b 652 522 641 553 646 537 z m 683 426 l 788 97 l 94 97 l 94 135 l 194 135 l 213 291 l 391 99 b 443 518 408 239 426 378 l 445 518 l 398 136 l 648 136 l 662 251 l 527 251 l 530 271 l 631 271 l 645 386 l 544 386 l 546 407 l 681 407 z m 907 520 l 903 520 l 821 372 b 776 517 806 421 791 469 l 857 517 l 867 595 z m 94 260 l 94 518 l 125 518 z "},"½":{"ha":1351,"x_min":0,"x_max":0,"o":"m 1045 817 b 920 901 1029 868 980 901 l 790 901 l 773 762 b 752 595 766 706 759 650 l 638 942 l 456 622 l 497 959 l 275 700 l 119 955 l 94 748 l 94 996 l 1258 996 l 1258 867 b 1174 903 1236 890 1207 903 b 1045 817 1116 903 1065 862 z m 24 1065 l 24 28 l 1327 28 l 1327 1065 z m 1187 755 l 1258 755 l 1258 701 b 1187 755 1240 726 1217 744 z m 1171 760 b 1153 770 1163 763 1163 762 b 1165 789 1145 775 1157 789 b 1172 780 1170 789 1172 788 z m 1137 653 b 1155 646 1143 651 1148 649 b 1141 629 1155 638 1148 629 b 1134 636 1136 629 1133 632 z m 885 739 b 891 787 888 755 889 771 l 907 787 b 929 781 922 787 927 783 b 908 739 942 766 923 739 z m 165 518 l 181 518 l 192 609 l 254 507 l 337 605 l 308 363 z m 1043 727 b 1115 664 1057 698 1084 675 l 1021 664 l 1019 643 b 1133 515 1010 572 1064 515 b 1258 595 1186 515 1237 553 l 1258 97 l 791 97 l 1029 517 l 1044 517 l 976 647 b 1043 727 1006 664 1031 693 z m 652 522 l 525 522 l 553 570 l 636 570 b 652 522 641 553 646 537 z m 683 426 l 788 97 l 94 97 l 94 135 l 194 135 l 213 291 l 391 99 b 443 518 408 239 426 378 l 445 518 l 398 136 l 648 136 l 662 251 l 527 251 l 530 271 l 631 271 l 645 386 l 544 386 l 546 407 l 681 407 z m 907 520 l 903 520 l 821 372 b 776 517 806 421 791 469 l 857 517 l 867 595 z m 94 260 l 94 518 l 125 518 z "},"¾":{"ha":1351,"x_min":0,"x_max":0,"o":"m 1045 817 b 920 901 1029 868 980 901 l 790 901 l 773 762 b 752 595 766 706 759 650 l 638 942 l 456 622 l 497 959 l 275 700 l 119 955 l 94 748 l 94 996 l 1258 996 l 1258 867 b 1174 903 1236 890 1207 903 b 1045 817 1116 903 1065 862 z m 24 1065 l 24 28 l 1327 28 l 1327 1065 z m 1187 755 l 1258 755 l 1258 701 b 1187 755 1240 726 1217 744 z m 1171 760 b 1153 770 1163 763 1163 762 b 1165 789 1145 775 1157 789 b 1172 780 1170 789 1172 788 z m 1137 653 b 1155 646 1143 651 1148 649 b 1141 629 1155 638 1148 629 b 1134 636 1136 629 1133 632 z m 885 739 b 891 787 888 755 889 771 l 907 787 b 929 781 922 787 927 783 b 908 739 942 766 923 739 z m 165 518 l 181 518 l 192 609 l 254 507 l 337 605 l 308 363 z m 1043 727 b 1115 664 1057 698 1084 675 l 1021 664 l 1019 643 b 1133 515 1010 572 1064 515 b 1258 595 1186 515 1237 553 l 1258 97 l 791 97 l 1029 517 l 1044 517 l 976 647 b 1043 727 1006 664 1031 693 z m 652 522 l 525 522 l 553 570 l 636 570 b 652 522 641 553 646 537 z m 683 426 l 788 97 l 94 97 l 94 135 l 194 135 l 213 291 l 391 99 b 443 518 408 239 426 378 l 445 518 l 398 136 l 648 136 l 662 251 l 527 251 l 530 271 l 631 271 l 645 386 l 544 386 l 546 407 l 681 407 z m 907 520 l 903 520 l 821 372 b 776 517 806 421 791 469 l 857 517 l 867 595 z m 94 260 l 94 518 l 125 518 z "},"¿":{"ha":768,"x_min":0,"x_max":0,"o":"m 391 989 b 227 828 301 989 227 917 b 391 664 227 738 300 664 b 555 825 480 664 555 735 b 391 989 555 914 480 989 z m 385 82 b 298 170 338 82 298 123 b 329 227 298 179 306 199 b 396 300 352 255 374 279 b 497 428 440 344 473 386 b 534 588 522 473 534 518 l 534 631 l 258 631 l 264 602 b 239 485 276 541 266 513 b 132 374 205 449 170 413 b 27 170 82 327 27 265 b 132 -82 27 72 63 -13 b 385 -187 201 -152 287 -187 b 636 -82 482 -187 567 -151 b 741 170 706 -13 741 72 l 741 193 l 472 193 l 472 170 b 385 82 472 122 433 82 z "},"À":{"ha":1173,"x_min":0,"x_max":0,"o":"m 324 1385 l 608 1144 l 732 1231 l 510 1518 z m 587 532 l 656 384 l 516 384 z m 317 0 l 398 166 l 774 166 l 855 0 l 1145 0 l 618 1092 l 554 1092 l 27 0 z "},"Á":{"ha":1173,"x_min":0,"x_max":0,"o":"m 441 1231 l 565 1144 l 848 1385 l 663 1518 z m 587 532 l 656 384 l 516 384 z m 317 0 l 398 166 l 774 166 l 855 0 l 1145 0 l 618 1092 l 554 1092 l 27 0 z "},"Â":{"ha":1173,"x_min":0,"x_max":0,"o":"m 524 1139 l 584 1225 l 645 1139 l 829 1139 l 584 1488 l 342 1139 z m 587 532 l 656 384 l 516 384 z m 317 0 l 398 166 l 774 166 l 855 0 l 1145 0 l 618 1092 l 554 1092 l 27 0 z "},"Ã":{"ha":1159,"x_min":0,"x_max":0,"o":"m 580 532 l 650 384 l 509 384 z m 894 1361 l 853 1315 b 774 1258 823 1285 796 1267 b 625 1292 761 1253 710 1259 b 418 1331 532 1328 465 1345 b 297 1251 376 1319 333 1290 l 302 1064 l 344 1104 b 437 1168 383 1140 415 1161 b 576 1144 453 1173 501 1168 l 20 0 l 310 0 l 391 166 l 768 166 l 849 0 l 1139 0 l 583 1142 b 765 1094 662 1117 726 1099 b 888 1152 813 1089 855 1112 l 901 1169 l 893 1178 z "},"Ä":{"ha":1173,"x_min":0,"x_max":0,"o":"m 642 1244 b 758 1139 642 1184 697 1139 b 872 1244 819 1139 872 1183 b 758 1350 872 1304 819 1350 b 642 1244 697 1350 642 1303 z m 308 1244 b 423 1139 308 1184 362 1139 b 538 1244 483 1139 538 1184 b 423 1350 538 1303 483 1350 b 308 1244 362 1350 308 1304 z m 587 532 l 656 384 l 516 384 z m 317 0 l 398 166 l 774 166 l 855 0 l 1145 0 l 618 1092 l 554 1092 l 27 0 z "},"Å":{"ha":1173,"x_min":0,"x_max":0,"o":"m 587 532 l 656 384 l 516 384 z m 621 1256 b 588 1227 621 1232 615 1227 b 555 1256 561 1227 555 1232 b 588 1286 555 1280 561 1286 b 621 1256 615 1286 621 1281 z m 422 1257 b 564 1106 422 1177 489 1115 l 27 0 l 317 0 l 398 166 l 774 166 l 855 0 l 1145 0 l 608 1106 b 755 1257 685 1114 755 1176 b 588 1409 755 1343 676 1409 b 422 1257 500 1409 422 1343 z "},"Æ":{"ha":1479,"x_min":0,"x_max":0,"o":"m 728 144 l 728 0 l 1459 0 l 1459 267 l 1008 267 l 1008 416 l 1349 416 l 1349 682 l 1008 682 l 1008 831 l 1459 831 l 1459 1098 l 555 1098 l 20 3 l 314 3 l 393 144 z m 510 387 l 729 842 l 729 390 z "},"Ç":{"ha":1093,"x_min":0,"x_max":0,"o":"m 462 -110 b 393 -173 424 -151 396 -172 l 333 -193 l 520 -373 l 598 -314 b 743 1 674 -255 737 -137 b 1056 152 873 21 978 78 l 1073 168 l 881 347 l 863 332 b 628 246 797 274 720 246 b 395 331 536 246 460 274 b 298 538 330 389 298 457 b 395 744 298 618 330 686 b 628 831 459 802 536 831 b 862 739 720 831 796 801 l 880 723 l 1072 914 l 1055 930 b 868 1054 1002 982 941 1023 b 659 1099 802 1080 734 1095 l 660 1102 l 628 1102 b 191 939 458 1102 311 1047 b 21 546 78 830 21 698 b 191 154 21 393 78 261 b 508 2 281 73 386 22 b 462 -110 501 -42 488 -82 z "},"È":{"ha":829,"x_min":0,"x_max":0,"o":"m 488 1146 l 615 1233 l 386 1520 l 199 1387 z m 54 0 l 808 0 l 808 267 l 335 267 l 335 416 l 699 416 l 699 683 l 335 683 l 335 831 l 808 831 l 808 1099 l 54 1099 z "},"É":{"ha":829,"x_min":0,"x_max":0,"o":"m 54 0 l 808 0 l 808 267 l 335 267 l 335 416 l 699 416 l 699 683 l 335 683 l 335 831 l 808 831 l 808 1099 l 54 1099 z m 279 1233 l 406 1146 l 692 1387 l 507 1520 z "},"Ê":{"ha":829,"x_min":0,"x_max":0,"o":"m 54 0 l 808 0 l 808 267 l 335 267 l 335 416 l 699 416 l 699 683 l 335 683 l 335 831 l 808 831 l 808 1099 l 54 1099 z m 371 1141 l 433 1228 l 496 1141 l 680 1141 l 433 1491 l 187 1141 z "},"Ë":{"ha":829,"x_min":0,"x_max":0,"o":"m 148 1266 b 257 1161 148 1206 196 1161 b 376 1266 318 1161 376 1206 b 257 1372 376 1326 318 1372 b 148 1266 196 1372 148 1325 z m 481 1266 b 600 1161 481 1205 538 1161 b 710 1266 662 1161 710 1206 b 600 1372 710 1325 661 1372 b 481 1266 538 1372 481 1327 z m 54 0 l 808 0 l 808 267 l 334 267 l 334 416 l 699 416 l 699 682 l 334 682 l 334 831 l 808 831 l 808 1098 l 54 1098 z "},"Ì":{"ha":436,"x_min":0,"x_max":0,"o":"m 259 1146 l 372 1233 l 169 1520 l 0 1387 z m 382 0 l 382 1099 l 115 1099 l 115 0 z "},"Í":{"ha":446,"x_min":0,"x_max":0,"o":"m 322 0 l 322 1099 l 54 1099 l 54 0 z m 75 1233 l 188 1146 l 446 1387 l 277 1520 z "},"Î":{"ha":493,"x_min":0,"x_max":0,"o":"m 167 1141 l 245 1228 l 325 1141 l 493 1141 l 245 1491 l 0 1141 z m 404 0 l 404 1099 l 89 1099 l 89 0 z "},"Ï":{"ha":564,"x_min":0,"x_max":0,"o":"m 0 1266 b 105 1161 0 1209 47 1161 b 222 1266 161 1161 222 1211 b 105 1372 222 1321 161 1372 b 0 1266 48 1372 0 1323 z m 342 1266 b 458 1161 342 1211 402 1161 b 564 1266 516 1161 564 1209 b 458 1372 564 1323 515 1372 b 342 1266 403 1372 342 1321 z m 434 0 l 434 1098 l 119 1098 l 119 0 z "},"Ð":{"ha":1043,"x_min":0,"x_max":0,"o":"m 404 267 l 376 267 l 376 454 l 591 453 l 601 630 l 390 630 l 390 830 l 419 830 b 747 549 607 830 747 735 b 404 267 738 366 601 267 z m 109 1096 l 109 637 l 14 637 l 14 446 l 109 446 l 109 0 l 404 0 b 869 161 588 0 745 54 b 1023 547 972 259 1023 389 b 869 935 1023 705 972 836 b 420 1096 750 1042 598 1096 z "},"Ñ":{"ha":1109,"x_min":0,"x_max":0,"o":"m 876 1395 l 831 1349 b 753 1292 802 1319 775 1301 b 606 1326 740 1287 690 1293 b 403 1365 515 1362 449 1379 b 283 1285 362 1353 319 1323 l 288 1098 l 330 1138 b 422 1202 369 1174 401 1195 b 570 1175 438 1207 489 1202 b 745 1128 649 1149 706 1133 b 869 1186 792 1123 834 1146 l 884 1203 l 874 1211 z m 68 1096 l 68 0 l 343 0 l 343 574 l 982 0 l 1042 0 l 1042 1096 l 766 1096 l 766 521 l 126 1096 z "},"Ò":{"ha":1206,"x_min":0,"x_max":0,"o":"m 597 1144 l 716 1231 l 502 1518 l 323 1385 z m 190 938 b 20 546 77 830 20 698 b 190 154 20 394 77 262 b 602 -8 309 46 434 -8 b 1014 154 770 -8 895 46 b 1185 546 1128 262 1185 394 b 1014 938 1185 698 1128 830 b 602 1102 895 1047 770 1102 b 190 938 434 1102 309 1047 z m 813 749 b 909 547 877 692 909 626 b 813 346 909 468 878 402 b 602 262 747 290 692 262 b 391 346 511 262 455 290 b 295 547 327 402 295 468 b 392 749 295 625 327 691 b 602 833 455 805 510 833 b 813 749 692 833 747 806 z "},"Ó":{"ha":1206,"x_min":0,"x_max":0,"o":"m 430 1231 l 549 1144 l 823 1385 l 644 1518 z m 190 938 b 20 546 77 829 20 697 b 190 154 20 394 77 262 b 602 -8 309 46 434 -8 b 1015 154 770 -8 895 46 b 1185 546 1128 262 1185 394 b 1015 938 1185 698 1128 830 b 602 1102 895 1047 770 1102 b 190 938 434 1102 309 1047 z m 813 749 b 909 547 877 692 909 626 b 813 346 909 468 878 402 b 602 262 747 290 692 262 b 391 346 511 262 456 290 b 295 547 327 402 295 469 b 392 749 295 625 327 691 b 602 833 456 805 511 833 b 813 749 692 833 747 806 z "},"Ô":{"ha":1206,"x_min":0,"x_max":0,"o":"m 541 1139 l 599 1226 l 658 1139 l 835 1139 l 599 1489 l 365 1139 z m 190 938 b 20 546 77 829 20 697 b 190 154 20 394 77 262 b 602 -8 309 46 434 -8 b 1014 154 770 -8 895 46 b 1185 546 1128 262 1185 394 b 1014 938 1185 698 1128 830 b 602 1102 895 1047 770 1102 b 190 938 434 1102 309 1047 z m 813 749 b 909 547 877 692 909 626 b 813 346 909 468 878 402 b 602 262 747 290 692 262 b 391 346 511 262 456 290 b 295 547 327 402 295 469 b 392 749 295 625 327 691 b 602 833 456 805 511 833 b 813 749 692 833 747 806 z "},"Õ":{"ha":1205,"x_min":0,"x_max":0,"o":"m 879 1394 l 835 1349 b 758 1293 806 1320 780 1301 b 635 1327 746 1288 717 1294 b 455 1366 545 1362 500 1379 b 338 1285 414 1353 374 1323 l 343 1098 l 384 1138 b 474 1202 422 1175 453 1195 b 599 1175 489 1207 519 1202 b 873 1187 725 1133 791 1091 l 887 1203 l 877 1212 z m 190 938 b 20 545 77 829 20 697 b 190 154 20 393 77 261 b 602 -8 309 46 434 -8 b 1014 154 770 -8 896 46 b 1185 545 1127 261 1185 393 b 1014 938 1185 698 1127 830 b 602 1101 895 1046 770 1101 b 190 938 434 1101 309 1046 z m 812 748 b 909 547 877 692 909 626 b 812 346 909 467 877 401 b 602 262 748 289 693 262 b 391 346 510 262 455 289 b 295 547 327 401 295 467 b 391 748 295 626 327 692 b 602 833 456 805 511 833 b 812 748 692 833 747 805 z "},"Ö":{"ha":1205,"x_min":0,"x_max":0,"o":"m 327 1264 b 439 1159 327 1205 379 1159 b 550 1264 498 1159 550 1206 b 439 1370 550 1322 497 1370 b 327 1264 379 1370 327 1323 z m 650 1264 b 761 1159 650 1205 702 1159 b 873 1264 821 1159 873 1206 b 761 1370 873 1322 820 1370 b 650 1264 702 1370 650 1323 z m 190 938 b 20 545 77 829 20 697 b 190 154 20 393 77 261 b 601 -8 308 46 433 -8 b 1014 154 769 -8 894 46 b 1185 545 1127 261 1185 393 b 1014 938 1185 698 1127 830 b 601 1101 895 1046 769 1101 b 190 938 433 1101 308 1046 z m 812 748 b 909 547 877 692 909 626 b 812 346 909 467 877 401 b 601 262 747 289 692 262 b 391 346 511 262 455 289 b 295 547 327 401 295 468 b 391 748 295 626 327 692 b 601 833 456 805 511 833 b 812 748 691 833 746 805 z "},"×":{"ha":1436,"x_min":0,"x_max":0,"o":""},"Ø":{"ha":1232,"x_min":0,"x_max":0,"o":"m 708 1094 b 623 1101 677 1098 656 1101 b 190 936 454 1101 309 1045 b 20 543 77 827 20 695 b 190 149 20 389 77 257 b 329 52 232 110 279 78 l 257 -139 l 492 -139 l 541 -4 b 623 -9 568 -7 595 -9 b 1041 154 791 -9 923 46 b 1212 548 1155 262 1212 394 b 1041 941 1212 700 1155 833 b 916 1031 1003 976 962 1006 l 993 1233 l 758 1233 z m 425 276 b 295 523 347 333 295 420 b 391 741 295 608 327 680 b 623 832 456 802 531 832 b 626 832 624 832 625 832 z m 821 781 b 936 547 892 721 936 642 b 839 328 936 460 904 388 b 637 238 778 270 722 241 z "},"Ù":{"ha":1087,"x_min":0,"x_max":0,"o":"m 580 1144 l 702 1230 l 483 1517 l 301 1384 z m 543 262 b 332 447 433 262 332 340 l 332 1096 l 54 1096 l 54 438 b 191 122 54 314 100 208 b 544 -8 286 36 405 -8 b 896 122 682 -8 802 36 b 1033 438 987 208 1033 314 l 1033 1096 l 756 1096 l 756 447 b 543 262 756 340 651 262 z "},"Ú":{"ha":1087,"x_min":0,"x_max":0,"o":"m 379 1230 l 502 1144 l 781 1384 l 599 1517 z m 543 262 b 332 447 433 262 332 340 l 332 1096 l 54 1096 l 54 438 b 191 122 54 314 100 208 b 544 -8 286 36 405 -8 b 896 122 682 -8 802 36 b 1033 438 987 208 1033 314 l 1033 1096 l 756 1096 l 756 447 b 543 262 756 340 651 262 z "},"Û":{"ha":1087,"x_min":0,"x_max":0,"o":"m 482 1139 l 541 1225 l 602 1139 l 783 1139 l 541 1488 l 302 1139 z m 543 262 b 332 447 433 262 332 341 l 332 1096 l 54 1096 l 54 438 b 191 122 54 314 100 208 b 544 -8 286 36 405 -8 b 896 122 682 -8 802 36 b 1033 438 987 208 1033 314 l 1033 1096 l 756 1096 l 756 447 b 543 262 756 341 651 262 z "},"Ü":{"ha":1088,"x_min":0,"x_max":0,"o":"m 268 1263 b 382 1158 268 1204 322 1158 b 496 1263 442 1158 496 1204 b 382 1369 496 1322 442 1369 b 268 1263 322 1369 268 1322 z m 544 262 b 331 447 434 262 331 341 l 331 1095 l 54 1095 l 54 438 b 191 122 54 315 100 209 b 545 -8 286 36 406 -8 b 897 122 682 -8 801 36 b 1034 438 988 209 1034 315 l 1034 1095 l 757 1095 l 757 447 b 544 262 757 342 652 262 z m 710 1369 l 710 1369 b 597 1263 649 1368 597 1323 b 710 1158 597 1204 650 1158 b 824 1263 770 1158 824 1204 b 710 1369 824 1321 772 1371 z "},"Ý":{"ha":1046,"x_min":0,"x_max":0,"o":"m 385 1233 l 507 1146 l 785 1387 l 604 1520 z m 407 489 l 407 0 l 674 0 l 674 489 l 1020 1099 l 705 1099 l 516 776 l 328 1099 l 14 1099 z "},"Þ":{"ha":916,"x_min":0,"x_max":0,"o":"m 47 0 l 314 0 l 314 164 l 477 164 b 776 276 596 164 699 202 b 888 547 851 351 888 442 b 776 817 888 652 851 743 b 477 929 699 891 596 929 l 314 929 l 314 1093 l 47 1093 z m 628 547 b 477 414 628 469 555 414 l 314 414 l 314 680 l 477 680 b 628 547 556 680 628 624 z "},"ß":{"ha":1680,"x_min":0,"x_max":0,"o":"m 1147 375 l 868 318 l 871 296 b 1264 -10 898 121 1064 -10 b 1659 327 1482 -10 1659 139 b 1371 630 1659 485 1527 590 b 1167 749 1279 653 1167 676 b 1265 832 1167 795 1212 832 b 1361 716 1334 832 1361 784 l 1642 773 l 1639 794 b 1263 1101 1615 967 1463 1101 b 883 764 1044 1101 883 950 b 1163 455 883 610 1011 500 b 1378 343 1259 426 1378 415 b 1262 259 1378 301 1318 259 l 1248 259 l 1248 259 b 1147 346 1195 266 1147 306 z m 299 375 l 20 318 l 23 296 b 416 -10 50 121 216 -10 b 812 327 634 -10 812 139 b 523 630 812 485 679 590 b 319 749 431 653 319 676 b 417 832 319 795 364 832 b 513 716 486 832 513 784 l 794 773 l 791 794 b 415 1101 767 967 615 1101 b 35 764 196 1101 35 950 b 315 455 35 610 163 500 b 530 343 412 426 530 415 b 414 259 530 301 470 259 l 400 259 l 400 259 b 299 346 348 266 299 306 z "},"à":{"ha":1173,"x_min":0,"x_max":0,"o":"m 324 1385 l 608 1144 l 732 1231 l 510 1518 z m 587 532 l 656 384 l 516 384 z m 317 0 l 398 166 l 774 166 l 855 0 l 1145 0 l 618 1092 l 554 1092 l 27 0 z "},"á":{"ha":1173,"x_min":0,"x_max":0,"o":"m 441 1231 l 565 1144 l 848 1385 l 663 1518 z m 587 532 l 656 384 l 516 384 z m 317 0 l 398 166 l 774 166 l 855 0 l 1145 0 l 618 1092 l 554 1092 l 27 0 z "},"â":{"ha":1173,"x_min":0,"x_max":0,"o":"m 524 1139 l 584 1225 l 645 1139 l 829 1139 l 584 1488 l 342 1139 z m 587 532 l 656 384 l 516 384 z m 317 0 l 398 166 l 774 166 l 855 0 l 1145 0 l 618 1092 l 554 1092 l 27 0 z "},"ã":{"ha":1159,"x_min":0,"x_max":0,"o":"m 580 532 l 650 384 l 509 384 z m 894 1361 l 853 1315 b 774 1258 823 1285 796 1267 b 625 1292 761 1253 710 1259 b 418 1331 532 1328 465 1345 b 297 1251 376 1319 333 1290 l 302 1064 l 344 1104 b 437 1168 383 1140 415 1161 b 576 1144 453 1173 501 1168 l 20 0 l 310 0 l 391 166 l 768 166 l 849 0 l 1139 0 l 583 1142 b 765 1094 662 1117 726 1099 b 888 1152 813 1089 855 1112 l 901 1169 l 893 1178 z "},"ä":{"ha":1173,"x_min":0,"x_max":0,"o":"m 642 1244 b 758 1139 642 1184 697 1139 b 872 1244 819 1139 872 1183 b 758 1350 872 1304 819 1350 b 642 1244 697 1350 642 1303 z m 308 1244 b 423 1139 308 1184 362 1139 b 538 1244 483 1139 538 1184 b 423 1350 538 1303 483 1350 b 308 1244 362 1350 308 1304 z m 587 532 l 656 384 l 516 384 z m 317 0 l 398 166 l 774 166 l 855 0 l 1145 0 l 618 1092 l 554 1092 l 27 0 z "},"å":{"ha":1173,"x_min":0,"x_max":0,"o":"m 587 532 l 656 384 l 516 384 z m 621 1256 b 588 1227 621 1232 615 1227 b 555 1256 561 1227 555 1232 b 588 1286 555 1280 561 1286 b 621 1256 615 1286 621 1281 z m 422 1257 b 564 1106 422 1177 489 1115 l 27 0 l 317 0 l 398 166 l 774 166 l 855 0 l 1145 0 l 608 1106 b 755 1257 685 1114 755 1176 b 588 1409 755 1343 676 1409 b 422 1257 500 1409 422 1343 z "},"æ":{"ha":1479,"x_min":0,"x_max":0,"o":"m 728 144 l 728 0 l 1459 0 l 1459 267 l 1008 267 l 1008 416 l 1349 416 l 1349 682 l 1008 682 l 1008 831 l 1459 831 l 1459 1098 l 555 1098 l 20 3 l 314 3 l 393 144 z m 510 387 l 729 842 l 729 390 z "},"ç":{"ha":1093,"x_min":0,"x_max":0,"o":"m 462 -110 b 393 -173 424 -151 396 -172 l 333 -193 l 520 -373 l 598 -314 b 743 1 674 -255 737 -137 b 1056 152 873 21 978 78 l 1073 168 l 881 347 l 863 332 b 628 246 797 274 720 246 b 395 331 536 246 460 274 b 298 538 330 389 298 457 b 395 744 298 618 330 686 b 628 831 459 802 536 831 b 862 739 720 831 796 801 l 880 723 l 1072 914 l 1055 930 b 868 1054 1002 982 941 1023 b 659 1099 802 1080 734 1095 l 660 1102 l 628 1102 b 191 939 458 1102 311 1047 b 21 546 78 830 21 698 b 191 154 21 393 78 261 b 508 2 281 73 386 22 b 462 -110 501 -42 488 -82 z "},"è":{"ha":829,"x_min":0,"x_max":0,"o":"m 488 1146 l 615 1233 l 386 1520 l 199 1387 z m 54 0 l 808 0 l 808 267 l 335 267 l 335 416 l 699 416 l 699 683 l 335 683 l 335 831 l 808 831 l 808 1099 l 54 1099 z "},"é":{"ha":829,"x_min":0,"x_max":0,"o":"m 54 0 l 808 0 l 808 267 l 335 267 l 335 416 l 699 416 l 699 683 l 335 683 l 335 831 l 808 831 l 808 1099 l 54 1099 z m 279 1233 l 406 1146 l 692 1387 l 507 1520 z "},"ê":{"ha":829,"x_min":0,"x_max":0,"o":"m 54 0 l 808 0 l 808 267 l 335 267 l 335 416 l 699 416 l 699 683 l 335 683 l 335 831 l 808 831 l 808 1099 l 54 1099 z m 371 1141 l 433 1228 l 496 1141 l 680 1141 l 433 1491 l 187 1141 z "},"ë":{"ha":829,"x_min":0,"x_max":0,"o":"m 148 1266 b 257 1161 148 1206 196 1161 b 376 1266 318 1161 376 1206 b 257 1372 376 1326 318 1372 b 148 1266 196 1372 148 1325 z m 481 1266 b 600 1161 481 1205 538 1161 b 710 1266 662 1161 710 1206 b 600 1372 710 1325 661 1372 b 481 1266 538 1372 481 1327 z m 54 0 l 808 0 l 808 267 l 334 267 l 334 416 l 699 416 l 699 682 l 334 682 l 334 831 l 808 831 l 808 1098 l 54 1098 z "},"ì":{"ha":436,"x_min":0,"x_max":0,"o":"m 259 1146 l 372 1233 l 169 1520 l 0 1387 z m 382 0 l 382 1099 l 115 1099 l 115 0 z "},"í":{"ha":446,"x_min":0,"x_max":0,"o":"m 322 0 l 322 1099 l 54 1099 l 54 0 z m 75 1233 l 188 1146 l 446 1387 l 277 1520 z "},"î":{"ha":493,"x_min":0,"x_max":0,"o":"m 167 1141 l 245 1228 l 325 1141 l 493 1141 l 245 1491 l 0 1141 z m 404 0 l 404 1099 l 89 1099 l 89 0 z "},"ï":{"ha":564,"x_min":0,"x_max":0,"o":"m 0 1266 b 105 1161 0 1209 47 1161 b 222 1266 161 1161 222 1211 b 105 1372 222 1321 161 1372 b 0 1266 48 1372 0 1323 z m 342 1266 b 458 1161 342 1211 402 1161 b 564 1266 516 1161 564 1209 b 458 1372 564 1323 515 1372 b 342 1266 403 1372 342 1321 z m 434 0 l 434 1098 l 119 1098 l 119 0 z "},"ð":{"ha":1043,"x_min":0,"x_max":0,"o":"m 404 267 l 376 267 l 376 454 l 591 453 l 601 630 l 390 630 l 390 830 l 419 830 b 747 549 607 830 747 735 b 404 267 738 366 601 267 z m 109 1096 l 109 637 l 14 637 l 14 446 l 109 446 l 109 0 l 404 0 b 869 161 588 0 745 54 b 1023 547 972 259 1023 389 b 869 935 1023 705 972 836 b 420 1096 750 1042 598 1096 z "},"ñ":{"ha":1109,"x_min":0,"x_max":0,"o":"m 876 1399 l 831 1353 b 753 1296 802 1323 775 1305 b 606 1330 740 1291 690 1297 b 403 1369 515 1366 449 1383 b 283 1289 362 1357 319 1327 l 288 1102 l 330 1142 b 422 1206 369 1178 401 1199 b 570 1179 438 1211 489 1206 b 745 1132 649 1153 706 1137 b 869 1190 792 1127 834 1150 l 884 1207 l 874 1216 z m 68 1100 l 68 4 l 343 4 l 343 578 l 982 4 l 1042 4 l 1042 1100 l 766 1100 l 766 525 l 126 1100 z "},"ò":{"ha":1206,"x_min":0,"x_max":0,"o":"m 597 1144 l 716 1231 l 502 1518 l 323 1385 z m 190 938 b 20 546 77 830 20 698 b 190 154 20 394 77 262 b 602 -8 309 46 434 -8 b 1014 154 770 -8 895 46 b 1185 546 1128 262 1185 394 b 1014 938 1185 698 1128 830 b 602 1102 895 1047 770 1102 b 190 938 434 1102 309 1047 z m 813 749 b 909 547 877 692 909 626 b 813 346 909 468 878 402 b 602 262 747 290 692 262 b 391 346 511 262 455 290 b 295 547 327 402 295 468 b 392 749 295 625 327 691 b 602 833 455 805 510 833 b 813 749 692 833 747 806 z "},"ó":{"ha":1206,"x_min":0,"x_max":0,"o":"m 430 1231 l 549 1144 l 823 1385 l 644 1518 z m 190 938 b 20 546 77 829 20 697 b 190 154 20 394 77 262 b 602 -8 309 46 434 -8 b 1015 154 770 -8 895 46 b 1185 546 1128 262 1185 394 b 1015 938 1185 698 1128 830 b 602 1102 895 1047 770 1102 b 190 938 434 1102 309 1047 z m 813 749 b 909 547 877 692 909 626 b 813 346 909 468 878 402 b 602 262 747 290 692 262 b 391 346 511 262 456 290 b 295 547 327 402 295 469 b 392 749 295 625 327 691 b 602 833 456 805 511 833 b 813 749 692 833 747 806 z "},"ô":{"ha":1206,"x_min":0,"x_max":0,"o":"m 541 1139 l 599 1226 l 658 1139 l 835 1139 l 599 1489 l 365 1139 z m 190 938 b 20 546 77 829 20 697 b 190 154 20 394 77 262 b 602 -8 309 46 434 -8 b 1014 154 770 -8 895 46 b 1185 546 1128 262 1185 394 b 1014 938 1185 698 1128 830 b 602 1102 895 1047 770 1102 b 190 938 434 1102 309 1047 z m 813 749 b 909 547 877 692 909 626 b 813 346 909 468 878 402 b 602 262 747 290 692 262 b 391 346 511 262 456 290 b 295 547 327 402 295 469 b 392 749 295 625 327 691 b 602 833 456 805 511 833 b 813 749 692 833 747 806 z "},"õ":{"ha":1205,"x_min":0,"x_max":0,"o":"m 879 1394 l 835 1349 b 758 1293 806 1320 780 1301 b 635 1327 746 1288 717 1294 b 455 1366 545 1362 500 1379 b 338 1285 414 1353 374 1323 l 343 1098 l 384 1138 b 474 1202 422 1175 453 1195 b 599 1175 489 1207 519 1202 b 873 1187 725 1133 791 1091 l 887 1203 l 877 1212 z m 190 938 b 20 545 77 829 20 697 b 190 154 20 393 77 261 b 602 -8 309 46 434 -8 b 1014 154 770 -8 896 46 b 1185 545 1127 261 1185 393 b 1014 938 1185 698 1127 830 b 602 1101 895 1046 770 1101 b 190 938 434 1101 309 1046 z m 812 748 b 909 547 877 692 909 626 b 812 346 909 467 877 401 b 602 262 748 289 693 262 b 391 346 510 262 455 289 b 295 547 327 401 295 467 b 391 748 295 626 327 692 b 602 833 456 805 511 833 b 812 748 692 833 747 805 z "},"ö":{"ha":1205,"x_min":0,"x_max":0,"o":"m 327 1264 b 439 1159 327 1205 379 1159 b 550 1264 498 1159 550 1206 b 439 1370 550 1322 497 1370 b 327 1264 379 1370 327 1323 z m 650 1264 b 761 1159 650 1205 702 1159 b 873 1264 821 1159 873 1206 b 761 1370 873 1322 820 1370 b 650 1264 702 1370 650 1323 z m 190 938 b 20 545 77 829 20 697 b 190 154 20 393 77 261 b 601 -8 308 46 433 -8 b 1014 154 769 -8 894 46 b 1185 545 1127 261 1185 393 b 1014 938 1185 698 1127 830 b 601 1101 895 1046 769 1101 b 190 938 433 1101 308 1046 z m 812 748 b 909 547 877 692 909 626 b 812 346 909 467 877 401 b 601 262 747 289 692 262 b 391 346 511 262 455 289 b 295 547 327 401 295 468 b 391 748 295 626 327 692 b 601 833 456 805 511 833 b 812 748 691 833 746 805 z "},"÷":{"ha":1351,"x_min":0,"x_max":0,"o":"m 1045 817 b 920 901 1029 868 980 901 l 790 901 l 773 762 b 752 595 766 706 759 650 l 638 942 l 456 622 l 497 959 l 275 700 l 119 955 l 94 748 l 94 996 l 1258 996 l 1258 867 b 1174 903 1236 890 1207 903 b 1045 817 1116 903 1065 862 z m 24 1065 l 24 28 l 1327 28 l 1327 1065 z m 1187 755 l 1258 755 l 1258 701 b 1187 755 1240 726 1217 744 z m 1171 760 b 1153 770 1163 763 1163 762 b 1165 789 1145 775 1157 789 b 1172 780 1170 789 1172 788 z m 1137 653 b 1155 646 1143 651 1148 649 b 1141 629 1155 638 1148 629 b 1134 636 1136 629 1133 632 z m 885 739 b 891 787 888 755 889 771 l 907 787 b 929 781 922 787 927 783 b 908 739 942 766 923 739 z m 165 518 l 181 518 l 192 609 l 254 507 l 337 605 l 308 363 z m 1043 727 b 1115 664 1057 698 1084 675 l 1021 664 l 1019 643 b 1133 515 1010 572 1064 515 b 1258 595 1186 515 1237 553 l 1258 97 l 791 97 l 1029 517 l 1044 517 l 976 647 b 1043 727 1006 664 1031 693 z m 652 522 l 525 522 l 553 570 l 636 570 b 652 522 641 553 646 537 z m 683 426 l 788 97 l 94 97 l 94 135 l 194 135 l 213 291 l 391 99 b 443 518 408 239 426 378 l 445 518 l 398 136 l 648 136 l 662 251 l 527 251 l 530 271 l 631 271 l 645 386 l 544 386 l 546 407 l 681 407 z m 907 520 l 903 520 l 821 372 b 776 517 806 421 791 469 l 857 517 l 867 595 z m 94 260 l 94 518 l 125 518 z "},"ø":{"ha":1232,"x_min":0,"x_max":0,"o":"m 708 1094 b 623 1101 677 1098 656 1101 b 190 936 454 1101 309 1045 b 20 543 77 827 20 695 b 190 149 20 389 77 257 b 329 52 232 110 279 78 l 257 -139 l 492 -139 l 541 -4 b 623 -9 568 -7 595 -9 b 1041 154 791 -9 923 46 b 1212 548 1155 262 1212 394 b 1041 941 1212 700 1155 833 b 916 1031 1003 976 962 1006 l 993 1233 l 758 1233 z m 425 276 b 295 523 347 333 295 420 b 391 741 295 608 327 680 b 623 832 456 802 531 832 b 626 832 624 832 625 832 z m 821 781 b 936 547 892 721 936 642 b 839 328 936 460 904 388 b 637 238 778 270 722 241 z "},"ù":{"ha":1087,"x_min":0,"x_max":0,"o":"m 580 1144 l 702 1230 l 483 1517 l 301 1384 z m 543 262 b 332 447 433 262 332 340 l 332 1096 l 54 1096 l 54 438 b 191 122 54 314 100 208 b 544 -8 286 36 405 -8 b 896 122 682 -8 802 36 b 1033 438 987 208 1033 314 l 1033 1096 l 756 1096 l 756 447 b 543 262 756 340 651 262 z "},"ú":{"ha":1087,"x_min":0,"x_max":0,"o":"m 379 1230 l 502 1144 l 781 1384 l 599 1517 z m 543 262 b 332 447 433 262 332 340 l 332 1096 l 54 1096 l 54 438 b 191 122 54 314 100 208 b 544 -8 286 36 405 -8 b 896 122 682 -8 802 36 b 1033 438 987 208 1033 314 l 1033 1096 l 756 1096 l 756 447 b 543 262 756 340 651 262 z "},"û":{"ha":1087,"x_min":0,"x_max":0,"o":"m 482 1139 l 541 1225 l 602 1139 l 783 1139 l 541 1488 l 302 1139 z m 543 262 b 332 447 433 262 332 341 l 332 1096 l 54 1096 l 54 438 b 191 122 54 314 100 208 b 544 -8 286 36 405 -8 b 896 122 682 -8 802 36 b 1033 438 987 208 1033 314 l 1033 1096 l 756 1096 l 756 447 b 543 262 756 341 651 262 z "},"ü":{"ha":1088,"x_min":0,"x_max":0,"o":"m 268 1263 b 382 1158 268 1204 322 1158 b 496 1263 442 1158 496 1204 b 382 1369 496 1322 442 1369 b 268 1263 322 1369 268 1322 z m 544 262 b 331 447 434 262 331 341 l 331 1095 l 54 1095 l 54 438 b 191 122 54 315 100 209 b 545 -8 286 36 406 -8 b 897 122 682 -8 801 36 b 1034 438 988 209 1034 315 l 1034 1095 l 757 1095 l 757 447 b 544 262 757 342 652 262 z m 710 1369 l 710 1369 b 597 1263 649 1368 597 1323 b 710 1158 597 1204 650 1158 b 824 1263 770 1158 824 1204 b 710 1369 824 1321 772 1371 z "},"ý":{"ha":1046,"x_min":0,"x_max":0,"o":"m 392 1233 l 514 1146 l 792 1387 l 610 1520 z m 413 489 l 413 0 l 680 0 l 680 489 l 1026 1099 l 711 1099 l 523 776 l 335 1099 l 21 1099 z "},"þ":{"ha":916,"x_min":0,"x_max":0,"o":"m 54 0 l 321 0 l 321 164 l 483 164 b 783 276 603 164 706 202 b 895 547 857 351 895 442 b 783 817 895 652 857 743 b 483 929 706 891 603 929 l 321 929 l 321 1093 l 54 1093 z m 635 547 b 483 414 635 469 562 414 l 321 414 l 321 680 l 483 680 b 635 547 562 680 635 624 z "},"ÿ":{"ha":1046,"x_min":0,"x_max":0,"o":"m 246 1263 b 359 1158 246 1204 299 1158 b 473 1263 420 1158 473 1204 b 359 1369 473 1322 419 1369 b 246 1263 300 1369 246 1322 z m 413 489 l 413 0 l 680 0 l 680 489 l 1026 1099 l 711 1099 l 523 776 l 335 1099 l 21 1099 z m 574 1263 b 687 1158 574 1204 627 1158 b 800 1263 747 1158 800 1204 b 688 1369 800 1322 747 1369 b 574 1263 627 1369 574 1323 z "},"Ā":{"ha":1173,"x_min":0,"x_max":0,"o":""},"ā":{"ha":1173,"x_min":0,"x_max":0,"o":""},"Ă":{"ha":1173,"x_min":0,"x_max":0,"o":"m 586 1310 b 508 1381 545 1310 508 1341 l 508 1405 l 344 1405 l 344 1381 b 586 1160 344 1256 458 1160 b 828 1381 714 1160 828 1256 l 828 1405 l 665 1405 l 665 1381 b 586 1310 665 1341 627 1310 z m 587 532 l 656 384 l 516 384 z m 317 0 l 398 166 l 774 166 l 855 0 l 1145 0 l 618 1092 l 554 1092 l 27 0 z "},"ă":{"ha":1173,"x_min":0,"x_max":0,"o":"m 586 1310 b 508 1381 545 1310 508 1341 l 508 1405 l 344 1405 l 344 1381 b 586 1160 344 1256 458 1160 b 828 1381 714 1160 828 1256 l 828 1405 l 665 1405 l 665 1381 b 586 1310 665 1341 627 1310 z m 587 532 l 656 384 l 516 384 z m 317 0 l 398 166 l 774 166 l 855 0 l 1145 0 l 618 1092 l 554 1092 l 27 0 z "},"Ą":{"ha":1159,"x_min":0,"x_max":0,"o":"m 1139 0 l 606 1095 l 553 1095 l 20 0 l 318 0 l 397 166 l 762 166 l 828 26 b 743 -146 785 -14 746 -70 b 797 -294 740 -209 756 -261 b 1036 -360 855 -340 941 -368 b 1084 -355 1064 -357 1080 -356 l 1111 -355 l 1080 -156 l 1059 -156 b 957 -156 1059 -156 967 -165 b 957 -154 957 -156 956 -156 b 1032 -50 958 -117 980 -83 b 1109 0 1072 -24 1097 -7 z m 580 527 l 644 384 l 514 384 z "},"ą":{"ha":1159,"x_min":0,"x_max":0,"o":"m 1139 0 l 606 1095 l 553 1095 l 20 0 l 318 0 l 397 166 l 762 166 l 828 26 b 743 -146 785 -14 746 -70 b 797 -294 740 -209 756 -261 b 1036 -360 855 -340 941 -368 b 1084 -355 1064 -357 1080 -356 l 1111 -355 l 1080 -156 l 1059 -156 b 957 -156 1059 -156 967 -165 b 957 -154 957 -156 956 -156 b 1032 -50 958 -117 980 -83 b 1109 0 1072 -24 1097 -7 z m 580 527 l 644 384 l 514 384 z "},"Ć":{"ha":1093,"x_min":0,"x_max":0,"o":"m 660 1102 l 627 1102 b 191 939 458 1102 312 1047 b 21 546 78 830 21 698 b 191 154 21 394 78 262 b 627 -7 311 47 458 -7 b 868 37 713 -7 794 7 b 1056 161 942 68 1004 109 l 1073 178 l 881 368 l 863 351 b 628 260 798 290 721 260 b 395 344 536 260 460 288 b 298 545 330 400 298 466 b 395 747 298 624 330 690 b 628 831 459 803 536 831 b 862 740 719 831 796 801 l 880 723 l 1072 914 l 1055 931 b 659 1099 962 1020 828 1091 z m 449 1233 l 570 1146 l 847 1387 l 666 1520 z "},"ć":{"ha":1093,"x_min":0,"x_max":0,"o":"m 660 1102 l 627 1102 b 191 939 458 1102 312 1047 b 21 546 78 830 21 698 b 191 154 21 394 78 262 b 627 -7 311 47 458 -7 b 868 37 713 -7 794 7 b 1056 161 942 68 1004 109 l 1073 178 l 881 368 l 863 351 b 628 260 798 290 721 260 b 395 344 536 260 460 288 b 298 545 330 400 298 466 b 395 747 298 624 330 690 b 628 831 459 803 536 831 b 862 740 719 831 796 801 l 880 723 l 1072 914 l 1055 931 b 659 1099 962 1020 828 1091 z m 449 1233 l 570 1146 l 847 1387 l 666 1520 z "},"Č":{"ha":1093,"x_min":0,"x_max":0,"o":"m 660 1102 l 627 1102 b 191 939 458 1102 312 1047 b 21 546 78 830 21 698 b 191 154 21 394 78 262 b 627 -7 311 47 458 -7 b 868 37 713 -7 794 7 b 1056 161 942 68 1004 109 l 1073 178 l 881 368 l 863 351 b 628 260 798 290 721 260 b 395 344 536 260 460 288 b 298 545 330 400 298 466 b 395 747 298 624 330 690 b 628 831 459 803 536 831 b 862 740 719 831 796 801 l 880 723 l 1072 914 l 1055 931 b 659 1099 962 1020 828 1091 z m 583 1113 l 822 1463 l 643 1463 l 583 1376 l 524 1463 l 345 1463 z "},"č":{"ha":1093,"x_min":0,"x_max":0,"o":"m 660 1102 l 627 1102 b 191 939 458 1102 312 1047 b 21 546 78 830 21 698 b 191 154 21 394 78 262 b 627 -7 311 47 458 -7 b 868 37 713 -7 794 7 b 1056 161 942 68 1004 109 l 1073 178 l 881 368 l 863 351 b 628 260 798 290 721 260 b 395 344 536 260 460 288 b 298 545 330 400 298 466 b 395 747 298 624 330 690 b 628 831 459 803 536 831 b 862 740 719 831 796 801 l 880 723 l 1072 914 l 1055 931 b 659 1099 962 1020 828 1091 z m 583 1113 l 822 1463 l 643 1463 l 583 1376 l 524 1463 l 345 1463 z "},"Ď":{"ha":1074,"x_min":0,"x_max":0,"o":"m 475 1113 l 725 1463 l 538 1463 l 475 1376 l 415 1463 l 201 1463 z m 68 1093 l 68 0 l 382 0 b 894 160 585 0 758 54 b 1047 546 996 258 1047 388 b 894 933 1047 704 996 834 b 430 1093 784 1028 623 1093 l 406 1093 l 406 1093 z m 769 547 b 384 267 744 362 601 267 l 348 267 l 352 828 l 429 828 b 769 547 620 828 769 729 z "},"ď":{"ha":1074,"x_min":0,"x_max":0,"o":"m 475 1113 l 725 1463 l 538 1463 l 475 1376 l 415 1463 l 201 1463 z m 68 1093 l 68 0 l 382 0 b 894 160 585 0 758 54 b 1047 546 996 258 1047 388 b 894 933 1047 704 996 834 b 430 1093 784 1028 623 1093 l 406 1093 l 406 1093 z m 769 547 b 384 267 744 362 601 267 l 348 267 l 352 828 l 429 828 b 769 547 620 828 769 729 z "},"Đ":{"ha":1042,"x_min":0,"x_max":0,"o":"m 404 267 l 376 267 l 376 454 l 591 453 l 594 630 l 377 630 l 377 830 l 419 830 b 747 549 607 830 747 735 b 404 267 738 366 601 267 z m 109 1096 l 109 637 l 14 637 l 14 446 l 109 446 l 109 0 l 404 0 b 869 161 588 0 745 54 b 1023 547 972 259 1023 389 b 869 935 1023 705 972 836 b 420 1096 750 1042 598 1096 z "},"đ":{"ha":1043,"x_min":0,"x_max":0,"o":"m 404 267 l 376 267 l 376 454 l 591 453 l 594 630 l 377 630 l 377 830 l 419 830 b 747 549 607 830 747 735 b 404 267 738 366 601 267 z m 109 1096 l 109 637 l 14 637 l 14 446 l 109 446 l 109 0 l 404 0 b 869 161 588 0 745 54 b 1023 547 972 259 1023 389 b 869 935 1023 705 972 836 b 420 1096 750 1042 598 1096 z "},"Ē":{"ha":829,"x_min":0,"x_max":0,"o":"m 54 0 l 808 0 l 808 267 l 334 267 l 334 416 l 699 416 l 699 682 l 334 682 l 334 831 l 808 831 l 808 1098 l 54 1098 z m 186 1310 l 186 1152 l 676 1152 l 676 1310 z "},"ē":{"ha":829,"x_min":0,"x_max":0,"o":"m 54 0 l 808 0 l 808 267 l 334 267 l 334 416 l 699 416 l 699 682 l 334 682 l 334 831 l 808 831 l 808 1098 l 54 1098 z m 186 1310 l 186 1152 l 676 1152 l 676 1310 z "},"Ĕ":{"ha":829,"x_min":0,"x_max":0,"o":"m 54 0 l 808 0 l 808 267 l 334 267 l 334 416 l 699 416 l 699 682 l 334 682 l 334 831 l 808 831 l 808 1098 l 54 1098 z m 431 1310 b 351 1381 388 1310 351 1340 l 351 1405 l 186 1405 l 186 1381 b 255 1225 186 1321 208 1268 b 431 1160 303 1182 363 1160 b 607 1225 499 1160 559 1182 b 676 1381 654 1268 676 1321 l 676 1405 l 512 1405 l 512 1381 b 431 1310 512 1341 473 1310 z "},"ĕ":{"ha":829,"x_min":0,"x_max":0,"o":"m 54 0 l 808 0 l 808 267 l 334 267 l 334 416 l 699 416 l 699 682 l 334 682 l 334 831 l 808 831 l 808 1098 l 54 1098 z m 431 1310 b 351 1381 388 1310 351 1340 l 351 1405 l 186 1405 l 186 1381 b 255 1225 186 1321 208 1268 b 431 1160 303 1182 363 1160 b 607 1225 499 1160 559 1182 b 676 1381 654 1268 676 1321 l 676 1405 l 512 1405 l 512 1381 b 431 1310 512 1341 473 1310 z "},"Ė":{"ha":829,"x_min":0,"x_max":0,"o":"m 54 0 l 808 0 l 808 267 l 334 267 l 334 416 l 699 416 l 699 682 l 334 682 l 334 831 l 808 831 l 808 1098 l 54 1098 z m 297 1274 b 431 1154 297 1205 361 1154 b 565 1274 501 1154 565 1205 b 431 1393 565 1342 501 1393 b 297 1274 361 1393 297 1342 z "},"ė":{"ha":829,"x_min":0,"x_max":0,"o":"m 54 0 l 808 0 l 808 267 l 334 267 l 334 416 l 699 416 l 699 682 l 334 682 l 334 831 l 808 831 l 808 1098 l 54 1098 z m 297 1274 b 431 1154 297 1205 361 1154 b 565 1274 501 1154 565 1205 b 431 1393 565 1342 501 1393 b 297 1274 361 1393 297 1342 z "},"Ę":{"ha":829,"x_min":0,"x_max":0,"o":"m 54 0 l 477 0 b 413 -146 444 -36 415 -85 b 470 -294 410 -209 427 -261 b 718 -360 530 -339 622 -368 b 767 -355 746 -357 763 -356 l 794 -355 l 761 -155 l 676 -160 b 640 -154 651 -162 640 -159 b 714 -50 641 -117 662 -83 b 791 0 755 -24 780 -7 l 808 0 l 808 267 l 334 267 l 334 416 l 699 416 l 699 682 l 334 682 l 334 831 l 808 831 l 808 1098 l 54 1098 z "},"ę":{"ha":829,"x_min":0,"x_max":0,"o":"m 54 0 l 477 0 b 413 -146 444 -36 415 -85 b 470 -294 410 -209 427 -261 b 718 -360 530 -339 622 -368 b 767 -355 746 -357 763 -356 l 794 -355 l 761 -155 l 676 -160 b 640 -154 651 -162 640 -159 b 714 -50 641 -117 662 -83 b 791 0 755 -24 780 -7 l 808 0 l 808 267 l 334 267 l 334 416 l 699 416 l 699 682 l 334 682 l 334 831 l 808 831 l 808 1098 l 54 1098 z "},"Ě":{"ha":829,"x_min":0,"x_max":0,"o":"m 433 1113 l 680 1463 l 496 1463 l 433 1376 l 371 1463 l 187 1463 z m 54 0 l 808 0 l 808 267 l 334 267 l 334 416 l 699 416 l 699 682 l 334 682 l 334 831 l 808 831 l 808 1098 l 54 1098 z "},"ě":{"ha":829,"x_min":0,"x_max":0,"o":"m 433 1113 l 680 1463 l 496 1463 l 433 1376 l 371 1463 l 187 1463 z m 54 0 l 808 0 l 808 267 l 334 267 l 334 416 l 699 416 l 699 682 l 334 682 l 334 831 l 808 831 l 808 1098 l 54 1098 z "},"Ğ":{"ha":1243,"x_min":0,"x_max":0,"o":"m 640 1103 l 622 1103 b 190 940 453 1103 308 1048 b 20 548 77 831 20 699 b 190 155 20 395 77 262 b 622 -7 308 48 453 -7 b 1054 156 789 -7 934 48 b 1220 618 1165 263 1237 412 l 1219 639 l 586 639 l 586 397 l 899 397 b 624 262 846 321 744 262 b 393 345 532 262 457 289 b 297 548 329 402 297 468 b 393 749 297 627 329 693 b 624 833 457 806 532 833 b 854 742 714 833 789 804 l 872 725 l 1072 916 l 1055 932 b 641 1101 958 1022 816 1096 z m 622 1310 b 546 1381 580 1310 546 1341 l 546 1405 l 388 1405 l 388 1381 b 622 1160 388 1257 496 1160 b 856 1381 747 1160 856 1258 l 856 1405 l 697 1405 l 697 1381 b 622 1310 697 1342 661 1310 z "},"ğ":{"ha":1243,"x_min":0,"x_max":0,"o":"m 640 1103 l 622 1103 b 190 940 453 1103 308 1048 b 20 548 77 831 20 699 b 190 155 20 395 77 262 b 622 -7 308 48 453 -7 b 1054 156 789 -7 934 48 b 1220 618 1165 263 1237 412 l 1219 639 l 586 639 l 586 397 l 899 397 b 624 262 846 321 744 262 b 393 345 532 262 457 289 b 297 548 329 402 297 468 b 393 749 297 627 329 693 b 624 833 457 806 532 833 b 854 742 714 833 789 804 l 872 725 l 1072 916 l 1055 932 b 641 1101 958 1022 816 1096 z m 622 1310 b 546 1381 580 1310 546 1341 l 546 1405 l 388 1405 l 388 1381 b 622 1160 388 1257 496 1160 b 856 1381 747 1160 856 1258 l 856 1405 l 697 1405 l 697 1381 b 622 1310 697 1342 661 1310 z "},"Ģ":{"ha":1243,"x_min":0,"x_max":0,"o":""},"ģ":{"ha":1243,"x_min":0,"x_max":0,"o":""},"Ī":{"ha":441,"x_min":0,"x_max":0,"o":"m 354 0 l 354 1098 l 87 1098 l 87 0 z m 0 1310 l 0 1152 l 441 1152 l 441 1310 z "},"ī":{"ha":441,"x_min":0,"x_max":0,"o":"m 354 0 l 354 1098 l 87 1098 l 87 0 z m 0 1310 l 0 1152 l 441 1152 l 441 1310 z "},"Į":{"ha":443,"x_min":0,"x_max":0,"o":"m 375 1098 l 108 1098 l 108 42 b 7 -146 57 1 11 -61 b 58 -294 4 -209 20 -261 b 286 -360 113 -341 193 -368 b 334 -355 314 -357 330 -356 l 361 -355 l 329 -155 l 244 -160 b 208 -154 218 -162 207 -159 b 281 -50 209 -117 230 -83 l 375 11 z "},"į":{"ha":443,"x_min":0,"x_max":0,"o":"m 375 1098 l 108 1098 l 108 42 b 7 -146 57 1 11 -61 b 58 -294 4 -209 20 -261 b 286 -360 113 -341 193 -368 b 334 -355 314 -357 330 -356 l 361 -355 l 329 -155 l 244 -160 b 208 -154 218 -162 207 -159 b 281 -50 209 -117 230 -83 l 375 11 z "},"İ":{"ha":403,"x_min":0,"x_max":0,"o":"m 335 0 l 335 1098 l 68 1098 l 68 0 z m 83 1274 b 201 1154 83 1208 136 1154 b 321 1274 267 1154 321 1208 b 201 1393 321 1338 266 1393 b 83 1274 137 1393 83 1338 z "},"ı":{"ha":403,"x_min":0,"x_max":0,"o":"m 335 0 l 335 1098 l 68 1098 l 68 0 z m 83 1274 b 201 1154 83 1208 136 1154 b 321 1274 267 1154 321 1208 b 201 1393 321 1338 266 1393 b 83 1274 137 1393 83 1338 z "},"Ķ":{"ha":996,"x_min":0,"x_max":0,"o":"m 54 0 l 321 0 l 321 406 l 651 0 l 976 0 l 571 539 l 919 1093 l 611 1093 l 321 674 l 321 1093 l 54 1093 z m 296 -301 l 435 -418 l 453 -407 b 595 -248 517 -370 564 -317 b 615 -54 625 -179 633 -114 l 610 -36 l 344 -37 l 356 -68 b 371 -172 367 -96 372 -130 b 312 -284 369 -209 351 -246 z "},"ķ":{"ha":996,"x_min":0,"x_max":0,"o":"m 54 0 l 321 0 l 321 406 l 651 0 l 976 0 l 571 539 l 919 1093 l 611 1093 l 321 674 l 321 1093 l 54 1093 z m 296 -301 l 435 -418 l 453 -407 b 595 -248 517 -370 564 -317 b 615 -54 625 -179 633 -114 l 610 -36 l 344 -37 l 356 -68 b 371 -172 367 -96 372 -130 b 312 -284 369 -209 351 -246 z "},"Ĺ":{"ha":829,"x_min":0,"x_max":0,"o":"m 75 1233 l 188 1146 l 475 1387 l 284 1520 z m 54 0 l 808 0 l 808 267 l 334 267 l 334 1098 l 54 1098 z "},"ĺ":{"ha":829,"x_min":0,"x_max":0,"o":""},"Ļ":{"ha":829,"x_min":0,"x_max":0,"o":"m 54 0 l 808 0 l 808 267 l 334 267 l 334 1098 l 54 1098 z m 265 -301 l 403 -418 l 421 -407 b 558 -248 483 -370 528 -317 b 577 -54 587 -179 594 -114 l 572 -36 l 317 -37 l 328 -68 b 342 -172 338 -95 343 -130 b 283 -284 340 -209 322 -246 z "},"ļ":{"ha":829,"x_min":0,"x_max":0,"o":"m 54 0 l 808 0 l 808 267 l 334 267 l 334 1098 l 54 1098 z m 265 -301 l 403 -418 l 421 -407 b 558 -248 483 -370 528 -317 b 577 -54 587 -179 594 -114 l 572 -36 l 317 -37 l 328 -68 b 342 -172 338 -95 343 -130 b 283 -284 340 -209 322 -246 z "},"Ľ":{"ha":829,"x_min":0,"x_max":0,"o":"m 54 0 l 808 0 l 808 267 l 334 267 l 334 1098 l 54 1098 z m 398 834 l 536 716 l 554 727 b 685 886 616 763 659 817 b 703 1080 711 954 717 1019 l 698 1098 l 450 1097 l 461 1066 b 475 962 471 1038 476 1004 b 416 851 473 925 455 889 z "},"ľ":{"ha":829,"x_min":0,"x_max":0,"o":"m 54 0 l 808 0 l 808 267 l 334 267 l 334 1098 l 54 1098 z m 398 834 l 536 716 l 554 727 b 685 886 616 763 659 817 b 703 1080 711 954 717 1019 l 698 1098 l 450 1097 l 461 1066 b 475 962 471 1038 476 1004 b 416 851 473 925 455 889 z "},"Ł":{"ha":920,"x_min":0,"x_max":0,"o":"m 145 580 l 7 513 l 7 288 l 145 354 l 145 0 l 899 0 l 899 267 l 434 267 l 434 490 l 726 616 l 726 839 l 434 713 l 434 1098 l 145 1098 z "},"ł":{"ha":920,"x_min":0,"x_max":0,"o":"m 145 580 l 7 513 l 7 288 l 145 354 l 145 0 l 899 0 l 899 267 l 434 267 l 434 490 l 726 616 l 726 839 l 434 713 l 434 1098 l 145 1098 z "},"Ń":{"ha":1109,"x_min":0,"x_max":0,"o":"m 391 1233 l 514 1146 l 793 1387 l 610 1520 z m 68 1096 l 68 0 l 343 0 l 343 574 l 982 0 l 1042 0 l 1042 1096 l 766 1096 l 766 521 l 126 1096 z "},"ń":{"ha":1109,"x_min":0,"x_max":0,"o":"m 391 1233 l 514 1146 l 793 1387 l 610 1520 z m 68 1096 l 68 0 l 343 0 l 343 574 l 982 0 l 1042 0 l 1042 1096 l 766 1096 l 766 521 l 126 1096 z "},"Ņ":{"ha":1109,"x_min":0,"x_max":0,"o":"m 396 -323 l 528 -441 l 545 -430 b 676 -270 604 -393 648 -339 b 695 -76 704 -202 711 -137 l 690 -58 l 445 -59 l 456 -90 b 469 -195 465 -118 470 -153 b 413 -306 468 -232 450 -268 z m 68 1096 l 68 0 l 343 0 l 343 574 l 982 0 l 1042 0 l 1042 1096 l 766 1096 l 766 521 l 126 1096 z "},"ņ":{"ha":1109,"x_min":0,"x_max":0,"o":"m 396 -323 l 528 -441 l 545 -430 b 676 -270 604 -393 648 -339 b 695 -76 704 -202 711 -137 l 690 -58 l 445 -59 l 456 -90 b 469 -195 465 -118 470 -153 b 413 -306 468 -232 450 -268 z m 68 1096 l 68 0 l 343 0 l 343 574 l 982 0 l 1042 0 l 1042 1096 l 766 1096 l 766 521 l 126 1096 z "},"Ň":{"ha":1109,"x_min":0,"x_max":0,"o":"m 554 1090 l 795 1440 l 614 1440 l 554 1353 l 494 1440 l 315 1440 z m 68 1096 l 68 0 l 343 0 l 343 574 l 982 0 l 1042 0 l 1042 1096 l 766 1096 l 766 521 l 126 1096 z "},"ň":{"ha":1109,"x_min":0,"x_max":0,"o":"m 554 1090 l 795 1440 l 614 1440 l 554 1353 l 494 1440 l 315 1440 z m 68 1096 l 68 0 l 343 0 l 343 574 l 982 0 l 1042 0 l 1042 1096 l 766 1096 l 766 521 l 126 1096 z "},"Ő":{"ha":1206,"x_min":0,"x_max":0,"o":"m 813 749 b 909 547 877 692 909 626 b 813 346 909 468 878 402 b 602 262 747 290 692 262 b 391 346 511 262 456 290 b 295 547 327 402 295 469 b 392 749 295 625 327 691 b 602 833 456 805 511 833 b 813 749 692 833 747 806 z m 190 938 b 20 546 77 829 20 697 b 190 154 20 394 77 262 b 602 -8 309 46 434 -8 b 1015 154 770 -8 895 46 b 1185 546 1128 262 1185 394 b 1015 938 1185 698 1128 830 b 602 1102 895 1047 770 1102 b 190 938 434 1102 309 1047 z m 694 1414 l 505 1503 l 358 1179 l 494 1119 l 663 1346 l 588 1179 l 723 1119 l 938 1407 l 734 1503 z "},"ő":{"ha":1206,"x_min":0,"x_max":0,"o":"m 813 749 b 909 547 877 692 909 626 b 813 346 909 468 878 402 b 602 262 747 290 692 262 b 391 346 511 262 456 290 b 295 547 327 402 295 469 b 392 749 295 625 327 691 b 602 833 456 805 511 833 b 813 749 692 833 747 806 z m 190 938 b 20 546 77 829 20 697 b 190 154 20 394 77 262 b 602 -8 309 46 434 -8 b 1015 154 770 -8 895 46 b 1185 546 1128 262 1185 394 b 1015 938 1185 698 1128 830 b 602 1102 895 1047 770 1102 b 190 938 434 1102 309 1047 z m 694 1414 l 505 1503 l 358 1179 l 494 1119 l 663 1346 l 588 1179 l 723 1119 l 938 1407 l 734 1503 z "},"Œ":{"ha":1662,"x_min":0,"x_max":0,"o":"m 914 1017 b 601 1102 822 1073 717 1102 b 190 939 437 1102 308 1047 b 20 546 77 830 20 698 b 190 154 20 393 77 261 b 601 -7 307 47 436 -7 b 914 76 717 -7 821 20 l 914 -3 l 1641 -3 l 1641 262 l 1191 262 l 1191 412 l 1531 412 l 1531 678 l 1191 678 l 1191 842 l 1641 842 l 1641 1094 l 914 1095 z m 828 741 b 914 592 873 697 901 647 l 914 452 b 828 304 901 397 873 347 b 601 213 764 243 689 213 b 388 304 511 213 450 243 b 293 522 324 365 293 437 b 388 741 293 606 324 678 b 601 832 450 802 511 832 b 828 741 688 832 763 802 z "},"œ":{"ha":1662,"x_min":0,"x_max":0,"o":"m 914 1017 b 601 1102 822 1073 717 1102 b 190 939 437 1102 308 1047 b 20 546 77 830 20 698 b 190 154 20 393 77 261 b 601 -7 307 47 436 -7 b 914 76 717 -7 821 20 l 914 -3 l 1641 -3 l 1641 262 l 1191 262 l 1191 412 l 1531 412 l 1531 678 l 1191 678 l 1191 842 l 1641 842 l 1641 1094 l 914 1095 z m 828 741 b 914 592 873 697 901 647 l 914 452 b 828 304 901 397 873 347 b 601 213 764 243 689 213 b 388 304 511 213 450 243 b 293 522 324 365 293 437 b 388 741 293 606 324 678 b 601 832 450 802 511 832 b 828 741 688 832 763 802 z "},"Ŕ":{"ha":992,"x_min":0,"x_max":0,"o":"m 322 0 l 322 424 l 647 0 l 972 0 l 709 389 b 824 483 760 412 789 436 b 898 694 873 549 898 620 l 898 727 b 785 984 898 826 860 913 b 644 1070 744 1023 698 1051 b 454 1099 583 1090 519 1099 l 54 1099 l 55 0 z m 292 1233 l 420 1146 l 711 1387 l 524 1520 z m 321 833 l 438 833 b 577 796 488 833 548 820 b 620 705 606 770 620 741 b 577 608 620 663 606 632 b 478 570 546 582 514 570 l 393 571 l 321 571 z "},"ŕ":{"ha":992,"x_min":0,"x_max":0,"o":"m 322 0 l 322 424 l 647 0 l 972 0 l 709 389 b 824 483 760 412 789 436 b 898 694 873 549 898 620 l 898 727 b 785 984 898 826 860 913 b 644 1070 744 1023 698 1051 b 454 1099 583 1090 519 1099 l 54 1099 l 55 0 z m 292 1233 l 420 1146 l 711 1387 l 524 1520 z m 321 833 l 438 833 b 577 796 488 833 548 820 b 620 705 606 770 620 741 b 577 608 620 663 606 632 b 478 570 546 582 514 570 l 393 571 l 321 571 z "},"Ř":{"ha":992,"x_min":0,"x_max":0,"o":"m 322 0 l 322 424 l 647 0 l 972 0 l 709 389 b 824 483 760 412 789 436 b 898 694 873 549 898 620 l 898 727 b 785 984 898 826 860 913 b 644 1070 744 1023 698 1051 b 454 1099 583 1090 519 1099 l 54 1099 l 55 0 z m 423 1113 l 680 1463 l 489 1463 l 424 1376 l 359 1463 l 187 1463 z m 321 833 l 438 833 b 577 796 488 833 548 820 b 620 705 606 770 620 741 b 577 608 620 663 606 632 b 478 570 546 582 514 570 l 393 571 l 321 571 z "},"ř":{"ha":992,"x_min":0,"x_max":0,"o":"m 322 0 l 322 424 l 647 0 l 972 0 l 709 389 b 824 483 760 412 789 436 b 898 694 873 549 898 620 l 898 727 b 785 984 898 826 860 913 b 644 1070 744 1023 698 1051 b 454 1099 583 1090 519 1099 l 54 1099 l 55 0 z m 423 1113 l 680 1463 l 489 1463 l 424 1376 l 359 1463 l 187 1463 z m 321 833 l 438 833 b 577 796 488 833 548 820 b 620 705 606 770 620 741 b 577 608 620 663 606 632 b 478 570 546 582 514 570 l 393 571 l 321 571 z "},"Ş":{"ha":817,"x_min":0,"x_max":0,"o":"m 411 832 b 508 746 460 832 508 794 l 508 722 l 789 722 l 789 746 b 684 997 789 843 754 928 b 409 1103 614 1067 518 1103 b 132 1002 298 1103 202 1069 b 27 761 63 936 27 854 b 76 602 27 699 43 645 b 306 447 132 529 206 477 b 461 401 405 418 361 432 b 507 335 492 391 507 373 b 408 251 507 287 457 251 l 396 251 b 310 334 352 256 310 288 l 310 356 l 28 356 l 28 334 b 288 7 28 174 144 43 l 377 -45 b 462 -149 435 -79 459 -113 b 420 -156 462 -153 453 -158 l 325 -151 l 289 -349 l 372 -356 b 628 -289 474 -364 567 -337 b 680 -141 667 -256 683 -205 b 596 28 677 -65 642 -11 b 685 89 630 44 659 64 b 790 328 755 155 790 236 b 739 487 790 391 774 444 b 500 631 679 558 601 607 b 417 652 456 642 428 649 b 353 683 414 653 389 663 b 311 750 324 698 311 718 b 411 832 311 797 361 832 z "},"ş":{"ha":817,"x_min":0,"x_max":0,"o":"m 411 832 b 508 746 460 832 508 794 l 508 722 l 789 722 l 789 746 b 684 997 789 843 754 928 b 409 1103 614 1067 518 1103 b 132 1002 298 1103 202 1069 b 27 761 63 936 27 854 b 76 602 27 699 43 645 b 306 447 132 529 206 477 b 461 401 405 418 361 432 b 507 335 492 391 507 373 b 408 251 507 287 457 251 l 396 251 b 310 334 352 256 310 288 l 310 356 l 28 356 l 28 334 b 288 7 28 174 144 43 l 377 -45 b 462 -149 435 -79 459 -113 b 420 -156 462 -153 453 -158 l 325 -151 l 289 -349 l 372 -356 b 628 -289 474 -364 567 -337 b 680 -141 667 -256 683 -205 b 596 28 677 -65 642 -11 b 685 89 630 44 659 64 b 790 328 755 155 790 236 b 739 487 790 391 774 444 b 500 631 679 558 601 607 b 417 652 456 642 428 649 b 353 683 414 653 389 663 b 311 750 324 698 311 718 b 411 832 311 797 361 832 z "},"Š":{"ha":817,"x_min":0,"x_max":0,"o":"m 299 375 l 20 318 l 23 296 b 416 -10 50 121 216 -10 b 812 327 634 -10 812 139 b 523 630 812 485 679 590 b 319 749 431 653 319 676 b 417 832 319 795 364 832 b 513 716 486 832 513 784 l 794 773 l 791 794 b 415 1101 767 967 615 1101 b 35 764 196 1101 35 950 b 315 455 35 610 163 500 b 530 343 412 426 530 415 b 414 259 530 301 470 259 l 400 259 l 400 259 b 299 346 348 266 299 306 z m 408 1114 l 655 1463 l 471 1463 l 408 1377 l 346 1463 l 162 1463 z "},"š":{"ha":817,"x_min":0,"x_max":0,"o":"m 299 375 l 20 318 l 23 296 b 416 -10 50 121 216 -10 b 812 327 634 -10 812 139 b 523 630 812 485 679 590 b 319 749 431 653 319 676 b 417 832 319 795 364 832 b 513 716 486 832 513 784 l 794 773 l 791 794 b 415 1101 767 967 615 1101 b 35 764 196 1101 35 950 b 315 455 35 610 163 500 b 530 343 412 426 530 415 b 414 259 530 301 470 259 l 400 259 l 400 259 b 299 346 348 266 299 306 z m 408 1114 l 655 1463 l 471 1463 l 408 1377 l 346 1463 l 162 1463 z "},"Ţ":{"ha":953,"x_min":0,"x_max":0,"o":"m 20 831 l 333 831 l 333 11 l 436 -50 b 511 -154 487 -83 509 -117 b 474 -160 511 -158 502 -162 l 389 -155 l 354 -353 l 432 -360 b 545 -351 467 -363 505 -360 b 686 -294 587 -342 639 -323 b 756 -146 738 -261 760 -209 b 617 41 751 -56 683 3 l 617 831 l 932 831 l 932 1098 l 20 1098 z "},"ţ":{"ha":905,"x_min":0,"x_max":0,"o":"m 20 831 l 306 831 l 306 11 l 408 -50 b 490 -154 464 -83 488 -117 b 450 -160 490 -158 481 -162 l 357 -155 l 322 -353 l 404 -360 b 654 -294 504 -368 593 -341 b 711 -146 696 -261 713 -209 b 599 41 706 -59 655 1 l 599 831 l 885 831 l 885 1098 l 20 1098 z "},"Ť":{"ha":905,"x_min":0,"x_max":0,"o":"m 20 831 l 306 831 l 309 0 l 610 0 l 599 831 l 885 831 l 885 1098 l 20 1098 z m 451 1113 l 696 1463 l 513 1463 l 452 1376 l 391 1463 l 208 1463 z "},"ť":{"ha":905,"x_min":0,"x_max":0,"o":"m 20 831 l 306 831 l 309 0 l 610 0 l 599 831 l 885 831 l 885 1098 l 20 1098 z m 451 1113 l 696 1463 l 513 1463 l 452 1376 l 391 1463 l 208 1463 z "},"Ū":{"ha":1088,"x_min":0,"x_max":0,"o":"m 544 262 b 331 447 434 262 331 341 l 331 1095 l 54 1095 l 54 438 b 191 122 54 315 100 209 b 545 -8 286 36 406 -8 b 897 122 682 -8 801 36 b 1034 438 988 209 1034 315 l 1034 1095 l 757 1095 l 757 447 b 544 262 757 342 652 262 z m 305 1301 l 305 1143 l 783 1143 l 783 1301 z "},"ū":{"ha":1088,"x_min":0,"x_max":0,"o":"m 544 262 b 331 447 434 262 331 341 l 331 1095 l 54 1095 l 54 438 b 191 122 54 315 100 209 b 545 -8 286 36 406 -8 b 897 122 682 -8 801 36 b 1034 438 988 209 1034 315 l 1034 1095 l 757 1095 l 757 447 b 544 262 757 342 652 262 z m 305 1301 l 305 1143 l 783 1143 l 783 1301 z "},"Ů":{"ha":1088,"x_min":0,"x_max":0,"o":"m 544 262 b 331 447 434 262 331 341 l 331 1095 l 54 1095 l 54 438 b 191 122 54 315 100 209 b 545 -8 286 36 406 -8 b 897 122 682 -8 801 36 b 1034 438 988 209 1034 315 l 1034 1095 l 757 1095 l 757 447 b 544 262 757 342 652 262 z m 576 1248 b 544 1218 576 1223 570 1218 b 512 1248 517 1218 512 1223 b 544 1277 512 1272 517 1277 b 576 1248 571 1277 576 1272 z m 380 1249 b 544 1097 380 1162 456 1097 b 708 1249 631 1097 708 1163 b 544 1400 708 1334 630 1400 b 380 1249 457 1400 380 1334 z "},"ů":{"ha":1088,"x_min":0,"x_max":0,"o":"m 544 262 b 331 447 434 262 331 341 l 331 1095 l 54 1095 l 54 438 b 191 122 54 315 100 209 b 545 -8 286 36 406 -8 b 897 122 682 -8 801 36 b 1034 438 988 209 1034 315 l 1034 1095 l 757 1095 l 757 447 b 544 262 757 342 652 262 z m 576 1248 b 544 1218 576 1223 570 1218 b 512 1248 517 1218 512 1223 b 544 1277 512 1272 517 1277 b 576 1248 571 1277 576 1272 z m 380 1249 b 544 1097 380 1162 456 1097 b 708 1249 631 1097 708 1163 b 544 1400 708 1334 630 1400 b 380 1249 457 1400 380 1334 z "},"Ű":{"ha":1088,"x_min":0,"x_max":0,"o":"m 632 1455 l 439 1543 l 290 1220 l 428 1160 l 600 1386 l 523 1220 l 662 1160 l 880 1448 l 673 1543 z m 544 262 b 331 447 434 262 331 341 l 331 1095 l 54 1095 l 54 438 b 191 122 54 315 100 209 b 545 -8 286 36 406 -8 b 897 122 682 -8 801 36 b 1034 438 988 209 1034 315 l 1034 1095 l 757 1095 l 757 447 b 544 262 757 342 652 262 z "},"ű":{"ha":1088,"x_min":0,"x_max":0,"o":"m 632 1455 l 439 1543 l 290 1220 l 428 1160 l 600 1386 l 523 1220 l 662 1160 l 880 1448 l 673 1543 z m 544 262 b 331 447 434 262 331 341 l 331 1095 l 54 1095 l 54 438 b 191 122 54 315 100 209 b 545 -8 286 36 406 -8 b 897 122 682 -8 801 36 b 1034 438 988 209 1034 315 l 1034 1095 l 757 1095 l 757 447 b 544 262 757 342 652 262 z "},"Ų":{"ha":1088,"x_min":0,"x_max":0,"o":"m 897 120 b 1034 436 988 206 1034 313 l 1034 1093 l 765 1093 l 765 408 b 699 270 765 355 744 310 b 544 212 655 231 604 212 b 388 270 483 212 432 231 b 323 408 344 309 323 355 l 323 1093 l 54 1093 l 54 436 b 191 120 54 313 100 207 b 441 -2 259 55 340 14 b 475 -239 401 -80 411 -190 b 731 -305 537 -286 629 -314 b 783 -301 762 -303 779 -301 l 810 -301 l 778 -100 l 684 -106 b 643 -99 655 -108 643 -105 b 693 -22 645 -73 659 -48 b 783 38 729 4 759 24 b 897 120 826 59 860 84 z "},"ų":{"ha":1088,"x_min":0,"x_max":0,"o":"m 897 120 b 1034 436 988 206 1034 313 l 1034 1093 l 765 1093 l 765 408 b 699 270 765 355 744 310 b 544 212 655 231 604 212 b 388 270 483 212 432 231 b 323 408 344 309 323 355 l 323 1093 l 54 1093 l 54 436 b 191 120 54 313 100 207 b 441 -2 259 55 340 14 b 475 -239 401 -80 411 -190 b 731 -305 537 -286 629 -314 b 783 -301 762 -303 779 -301 l 810 -301 l 778 -100 l 684 -106 b 643 -99 655 -108 643 -105 b 693 -22 645 -73 659 -48 b 783 38 729 4 759 24 b 897 120 826 59 860 84 z "},"Ź":{"ha":932,"x_min":0,"x_max":0,"o":"m 34 829 l 464 829 l 20 -1 l 898 -1 l 898 253 l 468 253 l 912 1096 l 34 1096 z m 279 1233 l 403 1146 l 686 1387 l 502 1520 z "},"ź":{"ha":932,"x_min":0,"x_max":0,"o":"m 34 829 l 464 829 l 20 -1 l 898 -1 l 898 253 l 468 253 l 912 1096 l 34 1096 z m 279 1233 l 403 1146 l 686 1387 l 502 1520 z "},"Ż":{"ha":932,"x_min":0,"x_max":0,"o":"m 34 829 l 464 829 l 20 -1 l 898 -1 l 898 253 l 468 253 l 912 1096 l 34 1096 z m 336 1274 b 466 1154 336 1206 397 1154 b 597 1274 535 1154 597 1206 b 466 1393 597 1341 535 1393 b 336 1274 397 1393 336 1341 z "},"ż":{"ha":932,"x_min":0,"x_max":0,"o":"m 34 829 l 464 829 l 20 -1 l 898 -1 l 898 253 l 468 253 l 912 1096 l 34 1096 z m 336 1274 b 466 1154 336 1206 397 1154 b 597 1274 535 1154 597 1206 b 466 1393 597 1341 535 1393 b 336 1274 397 1393 336 1341 z "},"Ž":{"ha":932,"x_min":0,"x_max":0,"o":"m 465 1113 l 709 1463 l 526 1463 l 465 1376 l 405 1463 l 223 1463 z m 34 829 l 464 829 l 20 -1 l 898 -1 l 898 253 l 468 253 l 912 1096 l 34 1096 z "},"ž":{"ha":932,"x_min":0,"x_max":0,"o":"m 465 1113 l 709 1463 l 526 1463 l 465 1376 l 405 1463 l 223 1463 z m 34 829 l 464 829 l 20 -1 l 898 -1 l 898 253 l 468 253 l 912 1096 l 34 1096 z "},"Ə":{"ha":1244,"x_min":0,"x_max":0,"o":"m 915 680 l 36 680 l 32 662 b 20 550 24 627 20 590 b 191 155 20 396 78 263 b 623 -8 310 47 455 -8 b 1055 154 791 -8 936 46 b 1224 546 1167 262 1224 393 b 1055 939 1224 697 1167 829 b 623 1102 936 1047 791 1102 l 605 1102 l 604 1100 b 286 1005 482 1097 371 1056 l 265 992 l 419 766 l 440 780 b 621 832 494 815 553 832 b 915 680 749 832 861 770 z m 327 435 l 915 435 b 851 351 900 405 878 377 b 621 260 788 290 712 260 b 327 435 484 260 375 340 z "},"ǝ":{"ha":1244,"x_min":0,"x_max":0,"o":"m 915 680 l 36 680 l 32 662 b 20 550 24 627 20 590 b 191 155 20 396 78 263 b 623 -8 310 47 455 -8 b 1055 154 791 -8 936 46 b 1224 546 1167 262 1224 393 b 1055 939 1224 697 1167 829 b 623 1102 936 1047 791 1102 l 605 1102 l 604 1100 b 286 1005 482 1097 371 1056 l 265 992 l 419 766 l 440 780 b 621 832 494 815 553 832 b 915 680 749 832 861 770 z m 327 435 l 915 435 b 851 351 900 405 878 377 b 621 260 788 290 712 260 b 327 435 484 260 375 340 z "},"Ț":{"ha":905,"x_min":0,"x_max":0,"o":"m 20 831 l 306 831 l 309 0 l 610 0 l 599 831 l 885 831 l 885 1098 l 20 1098 z m 317 -301 l 447 -418 l 463 -407 b 584 -248 518 -370 558 -317 b 602 -54 610 -179 619 -114 l 597 -36 l 370 -37 l 380 -68 b 392 -172 389 -95 393 -130 b 340 -284 391 -209 375 -246 z "},"ț":{"ha":905,"x_min":0,"x_max":0,"o":"m 20 831 l 306 831 l 309 0 l 610 0 l 599 831 l 885 831 l 885 1098 l 20 1098 z m 317 -301 l 447 -418 l 463 -407 b 584 -248 518 -370 558 -317 b 602 -54 610 -179 619 -114 l 597 -36 l 370 -37 l 380 -68 b 392 -172 389 -95 393 -130 b 340 -284 391 -209 375 -246 z "},"‐":{"ha":631,"x_min":0,"x_max":0,"o":"m 24 345 l 607 345 l 607 585 l 24 585 z "},"‑":{"ha":631,"x_min":0,"x_max":0,"o":"m 24 345 l 607 345 l 607 585 l 24 585 z "},"‒":{"ha":699,"x_min":0,"x_max":0,"o":"m 24 345 l 675 345 l 675 585 l 24 585 z "},"–":{"ha":699,"x_min":0,"x_max":0,"o":"m 24 345 l 675 345 l 675 585 l 24 585 z "},"—":{"ha":1085,"x_min":0,"x_max":0,"o":"m 24 345 l 1061 345 l 1061 585 l 24 585 z "},"―":{"ha":1221,"x_min":0,"x_max":0,"o":"m 24 345 l 1197 345 l 1197 585 l 24 585 z "},"‘":{"ha":429,"x_min":0,"x_max":0,"o":"m 402 906 b 289 1067 402 986 350 1042 b 316 1100 289 1078 294 1088 b 368 1181 340 1113 395 1140 b 305 1207 353 1201 331 1202 b 230 1207 276 1212 251 1213 b 116 1137 182 1193 142 1165 b 27 909 64 1079 27 1011 b 216 719 27 808 116 712 l 258 722 l 271 727 b 402 906 343 749 402 822 z m 102 1145 z "},"’":{"ha":429,"x_min":0,"x_max":0,"o":"m 27 1020 b 140 859 27 940 79 884 b 113 825 140 848 135 837 b 62 745 89 812 34 786 b 124 719 76 725 98 724 b 199 719 153 713 178 712 b 313 789 247 733 287 760 b 402 1017 365 847 402 914 b 213 1207 402 1118 313 1214 l 171 1204 l 158 1198 b 27 1020 86 1177 27 1104 z m 327 781 z "},"‚":{"ha":429,"x_min":0,"x_max":0,"o":"m 27 104 b 140 -57 27 24 79 -32 b 113 -90 140 -67 135 -78 b 62 -170 89 -103 34 -130 b 124 -197 76 -191 98 -192 b 199 -197 153 -202 178 -203 b 313 -127 247 -182 287 -155 b 402 101 365 -68 402 -1 b 213 291 402 202 313 299 b 27 104 109 279 27 214 z "},"‛":{"ha":429,"x_min":0,"x_max":0,"o":"m 402 1020 b 289 859 402 940 350 884 b 316 825 289 848 294 837 b 368 745 340 812 395 786 b 305 719 353 725 331 724 b 230 719 276 713 251 712 b 116 789 182 733 142 760 b 27 1017 64 847 27 914 b 216 1207 27 1118 116 1214 l 258 1204 l 271 1198 b 402 1020 343 1177 402 1104 z m 102 781 z "},"“":{"ha":850,"x_min":0,"x_max":0,"o":"m 823 906 b 710 1067 823 986 770 1042 b 737 1100 710 1078 714 1088 b 788 1181 761 1113 816 1140 b 725 1207 773 1201 751 1202 b 650 1207 696 1212 672 1213 b 536 1137 602 1193 562 1165 b 447 909 485 1079 447 1011 b 637 719 447 808 537 712 l 679 722 l 691 727 b 823 906 763 749 823 822 z m 523 1145 z m 402 906 b 289 1067 402 986 350 1042 b 316 1100 289 1078 294 1088 b 368 1181 340 1113 395 1140 b 305 1207 353 1201 331 1202 b 230 1207 276 1212 251 1213 b 116 1137 182 1193 142 1165 b 27 909 64 1079 27 1011 b 216 719 27 808 116 712 l 258 722 l 271 727 b 402 906 343 749 402 822 z m 102 1145 z "},"”":{"ha":850,"x_min":0,"x_max":0,"o":"m 447 1020 b 560 859 447 940 500 884 b 533 825 560 848 556 837 b 482 745 509 812 454 786 b 545 719 497 725 519 724 b 620 719 574 713 598 712 b 734 789 668 733 708 760 b 823 1017 785 847 823 914 b 633 1207 823 1118 734 1214 l 591 1204 l 579 1198 b 447 1020 507 1177 447 1104 z m 747 781 z m 27 1020 b 140 859 27 940 79 884 b 113 825 140 848 135 837 b 62 745 89 812 34 786 b 124 719 76 725 98 724 b 199 719 153 713 178 712 b 313 789 247 733 287 760 b 402 1017 365 847 402 914 b 213 1207 402 1118 313 1214 l 171 1204 l 158 1198 b 27 1020 86 1177 27 1104 z m 327 781 z "},"„":{"ha":850,"x_min":0,"x_max":0,"o":"m 447 104 b 560 -57 447 24 500 -32 b 533 -90 560 -67 556 -78 b 482 -170 509 -103 454 -130 b 545 -197 497 -191 519 -192 b 620 -197 574 -202 598 -203 b 734 -127 668 -182 708 -155 b 823 101 785 -68 823 -1 b 633 291 823 202 734 299 b 447 104 529 279 447 214 z m 27 104 b 140 -57 27 24 79 -32 b 113 -90 140 -67 135 -78 b 62 -170 89 -103 34 -130 b 124 -197 76 -191 98 -192 b 199 -197 153 -202 178 -203 b 313 -127 247 -182 287 -155 b 402 101 365 -68 402 -1 b 213 291 402 202 313 299 b 27 104 109 279 27 214 z "},"‟":{"ha":850,"x_min":0,"x_max":0,"o":"m 402 1020 b 289 859 402 940 350 884 b 316 825 289 848 294 837 b 368 745 340 812 395 786 b 305 719 353 725 331 724 b 230 719 276 713 251 712 b 116 789 182 733 142 760 b 27 1017 64 847 27 914 b 216 1207 27 1118 116 1214 l 258 1204 l 271 1198 b 402 1020 343 1177 402 1104 z m 102 781 z m 823 1020 b 710 859 823 940 770 884 b 737 825 710 848 714 837 b 788 745 761 812 816 786 b 725 719 773 725 751 724 b 650 719 696 713 672 712 b 536 789 602 733 562 760 b 447 1017 485 847 447 914 b 637 1207 447 1118 537 1214 l 679 1204 l 691 1198 b 823 1020 763 1177 823 1104 z m 523 781 z "},"‰":{"ha":1659,"x_min":0,"x_max":0,"o":"m 47 874 b 290 631 47 741 157 631 b 533 874 422 631 533 743 b 290 1117 533 1005 420 1117 b 47 874 158 1117 47 1007 z m 782 336 b 873 245 847 336 873 311 b 782 155 873 180 847 155 b 690 245 716 155 690 180 b 782 336 690 311 716 336 z m 513 245 b 783 -24 513 98 635 -24 b 1052 245 929 -24 1052 99 b 782 515 1052 392 928 515 b 513 245 635 515 513 393 z m 749 1118 l 27 -24 l 247 -24 l 967 1118 z m 1362 337 b 1453 245 1428 337 1453 311 b 1362 155 1453 180 1428 155 b 1271 245 1297 155 1271 180 b 1362 337 1271 311 1297 337 z m 1093 245 b 1363 -24 1093 98 1215 -24 b 1632 245 1510 -24 1632 99 b 1363 515 1632 392 1509 515 b 1093 245 1216 515 1093 393 z m 290 935 b 329 917 302 934 314 930 b 290 816 369 883 338 816 b 249 832 275 816 262 821 b 249 917 227 851 225 898 b 290 935 265 930 277 934 z "},"‿":{"ha":1358,"x_min":0,"x_max":0,"o":"m 1049 817 b 924 901 1032 868 984 901 l 793 901 l 777 762 b 755 595 770 706 763 650 l 641 942 l 459 622 l 500 959 l 278 700 l 122 955 l 97 748 l 97 996 l 1261 996 l 1261 867 b 1177 903 1239 890 1210 903 b 1049 817 1120 903 1068 862 z m 27 1065 l 27 28 l 1331 28 l 1331 1065 z m 1190 755 l 1261 755 l 1261 701 b 1190 755 1244 726 1220 744 z m 1174 760 b 1156 770 1167 763 1166 762 b 1168 789 1149 775 1160 789 b 1175 780 1173 789 1176 788 z m 1141 653 b 1159 646 1147 651 1152 649 b 1144 629 1159 638 1151 629 b 1138 636 1139 629 1137 632 z m 889 739 b 895 787 891 755 893 771 l 911 787 b 932 781 925 787 931 783 b 911 739 946 766 926 739 z m 168 518 l 184 518 l 196 609 l 257 507 l 340 605 l 311 363 z m 1046 727 b 1119 664 1060 698 1087 675 l 1025 664 l 1022 643 b 1136 515 1013 572 1068 515 b 1261 595 1190 515 1241 553 l 1261 97 l 795 97 l 1032 517 l 1047 517 l 979 647 b 1046 727 1010 664 1035 693 z m 655 522 l 528 522 l 556 570 l 639 570 b 655 522 644 553 649 537 z m 687 426 l 792 97 l 97 97 l 97 135 l 197 135 l 216 291 l 394 99 b 446 518 412 239 429 378 l 449 518 l 402 136 l 652 136 l 666 251 l 531 251 l 533 271 l 634 271 l 648 386 l 547 386 l 550 407 l 684 407 z m 910 520 l 906 520 l 825 372 b 779 517 810 421 794 469 l 861 517 l 870 595 z m 97 260 l 97 518 l 129 518 z "},"€":{"ha":1184,"x_min":0,"x_max":0,"o":"m 940 345 l 923 328 b 704 237 861 267 790 237 b 486 327 617 237 546 266 b 440 384 468 345 453 363 l 876 384 l 893 528 l 395 528 b 395 546 395 529 395 545 b 395 574 395 551 395 569 l 894 574 l 911 718 l 447 718 b 486 764 458 733 471 749 b 704 854 546 825 617 854 b 922 764 788 854 860 825 l 939 747 l 1129 938 l 1112 954 b 733 1122 1022 1041 894 1114 l 734 1126 l 704 1126 b 295 955 544 1126 407 1068 b 149 718 225 886 176 807 l 70 718 l 54 574 l 125 574 b 125 547 125 571 125 552 b 125 528 125 545 125 529 l 70 528 l 54 384 l 147 384 b 295 137 173 291 223 209 b 704 -31 407 26 544 -31 b 1113 137 881 -31 1019 44 l 1130 154 z "}}}
